<?xml version="1.0" encoding="UTF-8"?>
<svg id="Layer_1" data-name="Layer 1" xmlns="http://www.w3.org/2000/svg" viewBox="0 0 857 794">
  <defs>
    <style>
      .cls-1 {
        fill: #f7faf7;
      }

      .cls-2 {
        fill: #0e130e;
      }

      .cls-3 {
        fill: #fefdfd;
      }

      .cls-4 {
        fill: #514d4d;
      }

      .cls-5 {
        fill: #15100f;
      }

      .cls-6 {
        fill: #0f150f;
      }

      .cls-7 {
        fill: #111711;
      }

      .cls-8 {
        fill: #f6f9f6;
      }

      .cls-9 {
        fill: #4cb747;
      }

      .cls-10 {
        fill: #25201f;
      }

      .cls-11 {
        fill: #f8faf8;
      }

      .cls-12 {
        fill: #909295;
      }

      .cls-13 {
        fill: #f9f9f9;
      }

      .cls-14 {
        fill: #2e2d2e;
      }

      .cls-15 {
        fill: #fafafa;
      }

      .cls-16 {
        fill: #4db748;
      }

      .cls-17 {
        fill: #f7f7f7;
      }

      .cls-18 {
        fill: #fefefe;
      }

      .cls-19 {
        fill: #0a0e0a;
      }

      .cls-20 {
        fill: #201a19;
      }

      .cls-21 {
        fill: #fbfbfb;
      }

      .cls-22 {
        fill: #fcfcfc;
      }

      .cls-23 {
        fill: #929497;
      }

      .cls-24 {
        fill: #919396;
      }

      .cls-25 {
        fill: #101610;
      }

      .cls-26 {
        fill: #0f140f;
      }

      .cls-27 {
        fill: #fdfdfd;
      }
    </style>
  </defs>
  <path class="cls-18" d="M857,297.98v495.97h-438c-.13-2.34,8.71.43,13.2-2.28,208.79-19.72,368.03-197.58,360.24-409.13,36.26-12.25,60.66-45.1,63.72-82.72l.84-1.84Z"/>
  <path class="cls-3" d="M423,0h434v288.98c-1.33-.72-.66-5.43-2.34-13.82-9.18-46.02-49.42-78.1-96.37-76.29l12.38-29.57-42.41,11.5C661.21,77.82,551.51,12.11,429.94,1.9c-3.02-.25-5.37.07-6.94-1.9Z"/>
  <path class="cls-27" d="M374,793.96H0v-370.98c.28.3.75,1.91.84,2.8l.96,9.55c8.28,82.79,42.54,160.79,97.43,223.31,66.56,75.82,159.3,123.25,259.73,132.88-6.19-.59,21.74,2.91,15.05,2.44Z"/>
  <path class="cls-27" d="M368,0c-.78.56-2.92,1.61-4.48,1.74-79.82,6.7-155.55,37.61-217.59,88.06C63.72,156.66,12.03,253.19,1.76,358.61c-.4,4.13-1.05,7.88-1.76,11.37V0h368Z"/>
  <path class="cls-4" d="M412,0c.28.05-1.65,1.01-2.21,1.01h-27.61c-.53,0-2.46-.97-2.19-1.01h32Z"/>
  <path class="cls-12" d="M405,793.96h-17c-.26-.02,1.66-1.03,2.18-1.03h12.64c.52,0,2.43,1.01,2.18,1.03Z"/>
  <g>
    <path class="cls-4" d="M0,412.98v-32c.05-.28,1.01,1.65,1.01,2.21v27.61c0,.53-.97,2.45-1.01,2.19Z"/>
    <path class="cls-23" d="M415.07,17.01c119.6,7.01,228.83,67.02,296.75,168.67l-50.09,14.49-25.32,64.57c-60.05-108.48-183.8-163.37-303.98-134.47-76.91,18.49-142.81,69.74-179.62,140.58l-27.01,8.65-25.03,153.38-37.44,12.18-24.17,7.14c-5.79,1.71-12.03,3.24-17.87,4.87-12.41-56.62,2.85-170.4,31.13-224.63C119.21,104.35,237.78,25.38,377.93,17c12.06-.72,25.08-.7,37.14,0ZM432.51,108.08c6.42.34,11.61-3.98,12.77-9.76,1.02-5.08,1.04-11.96.16-16.86-.19-1.08-1.89-3.16-2.22-4.1s1.94-2.91,2-3.94l1.13-22.94c.3-6.04-4.12-11.93-10.44-12.26l-61.52-3.29-1,18.03,4.61.73c.65.1.29,2.54.24,3.5l-1.53,28.81-5.04.75-.97,18.09,61.82,3.26ZM315.17,98.01c-.92-2.45-1.28-5.5-.05-5.74l27.17-5.37-3.29-17.9-28.64,5.36-1.52-8.65,30.47-5.89,2.09,9.47,19.07-3.6-5.36-27.85-73.25,14.2,3.01,17.11,5.38.84,6.07,31.12-4.81,2.05,3.63,17.36,72.8-14.09-4.96-26.68-19.03,3.72,1.23,8.7-30,5.84ZM521.05,132.05c.37.95,1.46,2.31,2.61,3.01l54.38,32.69c1.29.77,3.15,2.54,4.07,3.38.86,1.75,2.22,4.34,3.89,6.02l50.73,50.81c1.01-1.17,1.72-2.21,2.08-2.9l18.51-19.24-13.77-13.68-7.05,6.81-22.27-22.19,23.42-23.2,4.06,3.63,12.96-12.94-20.74-20.74-12.65,12.5,2.9,4.42-22.95,22.97-3.06-2.67-3.03-5.84,3.54-7.76-16.38-9.76-5.28,8.19-26.69-16.15,16.69-27.64,5.22,1.81,9.28-15.5-25.21-15.02-9.28,15.74c1.62,1.01,3.79,3.21,3.21,4.17l-15.83,26.38-5.15-1.29-6.12,10.02c0-1.1.14-3.17.46-4.32l2.36-8.34-5.79-2.71-7.17-36.1,3.73-1.12,5.09-16.85-35.61-10.95-5.39,17.21,3.42,2.11-27.7,27.26-5.5-1.41-4.85,15.9,29.78,9.16,5.31-16.77,14.26,4.21-4.71,16.87,30.22,9.83ZM207.85,124.88c-2.85,4.8,10.85,7.46,11.24,9.4l-3.94,3.34,11.02,20.97,54.54-28.92c5.48-2.9,8.35-9.64,5.82-15.53-2.71-6.31-5.86-12.47-9.69-18.23-4.08-6.12-13.06-6.69-19.54-3.32l-33.62,17.46c-2.08-.3-3.95-3.69-3.88-6.3l29.94-15.93,3.43,4.46,17.55-9.4-11.49-21.51-17.48,9.53-36.99,19.92c-6.36,3.42-8.37,10.83-5.31,17.13,2.82,5.8,6.33,11.28,8.41,16.94ZM177.65,178.3l11.47-9.83,11.39,13.12,24.09-20.98-11.2-12.71c-2.06,1.52-3.74,2.7-5.44,3.6l-34.9-13.25,1.87-3.37-11.83-13.35-28.05,24.35,11.69,13.8,3.7-1.55,8.26,36.94-4,4.77,10.99,12.37,23.53-20.55-11.57-13.36ZM128.25,276.93l32.8-52.66c3.18-5.1,2.09-12.08-2.66-15.68-3.91-2.97-9.04-6.11-13.41-8.08-1.18-.54-5.37.33-5.8-.87l-1.57-4.37-17.57-11.28c-5.84-3.75-14.38-2.82-18.47,3.7l-32.87,52.29,15.01,9.49,3.42-3.79,27.21,17.04-1.39,5.14,15.3,9.06Z"/>
    <path class="cls-24" d="M78.42,604.17l88.22-27.3,4.33-24.43c85.98,124.6,255.53,155.78,380.15,70.59,71.78-49.07,117.07-130.06,119.3-218.37l13.82-32.41,18.24-5.09c14.21,10,30.22,16.63,47.8,19.3,8.45,1.28,17.11.43,25.8.39,2.73,100.07-34.13,197.02-102.6,269.59-66.57,70.89-158.32,114.05-255.19,119.59-135.9,7.77-265.17-57.05-339.87-171.84ZM755.87,436.43l1.5-30.26-17.62-.82-1.18,5.89-33.71-1.83.74-11.42,8.84.38,1.03-17.72-26.68-1.54-4.04,76.83,27.41,1.57,1.32-17.76-9.74-.69.35-10.59,33.43,1.63.64,5.88,17.71.44ZM707.82,476.81c-3.09,3-5.55,6.74-7.05,10.81l-11.86,32.27c-2.08.73-5.46-.35-7.15-1.96l11.72-32.02,5.67.73,6.53-18.58-22.82-8.31-20.98,58.91c-2.14,6.02.96,13.08,7.02,15.36l17.43,6.56c8.25,3.11,13.99-1.5,18.78-8.91-.81,5.01-2.32,8.67-4.31,14.07l22.48,8.45,21.53-59.14c2.1-5.77-1.88-12.53-7-14.67-10.32-4.31-22.52-10.8-29.99-3.56ZM686.65,579.87l-15.25,22.58c-.92,1.37-3.13,2.19-4.52,1.22s-1.14-3.18-.12-4.69l14.29-21.12-15.12-10.25-16.04,23.75c-2.84-1.29-5.39-3-7.44-5.02l17.25-25.43,8.14,5.21,10.95-16.06-23.41-15.9-41.85,61.93,14.73,10.08,3.76-3.56,26.45,17.86-1.75,4.85,14.63,9.86,41.63-61.71-22.54-15.18-10.74,16.07,6.97,5.49ZM172.19,682.4l12.28-13.78-3.71-3.74,21.13-23.51,4.89,2.97,12.54-13.73-22.61-20.24-12.12,13.48,3.86,4.31-9.63,10.04,5.9-38.77-20.96-18.86-11.92,13.05,2.81,4.42-21.34,23.6-4.4-2.64-12.01,13.62,21.73,19.6,11.89-13.33-3.16-4.77,15.79-16.78-7.1,50.58,16.11,14.49ZM546.39,670.66l31.78,18.12-2.11,3.74,10.2,13.38,23.25-17.37-9.68-12.96-4.04-1.68-2.07-16.82,14.7,6.39c.56.44-.26,3.82.27,4.53l10.11,13.45,24.91-18.72-10.85-14.65-5.09,2.74-10.06-32.78,4.99-4.32-11.17-14.45-24.3,18.36,10.73,14.29,4.35-2.45,3.88,12.24-12.06-5.03.44-4.1-9.91-13.03-24.74,18.56,9.71,13.2,4.24.84,1.6,13.31-11.36-6.52.79-3.86-10.1-13.06-23.82,17.94,10.23,13.54,5.19-2.86ZM261.86,722.29l21.41-38.7c3.64-6.57,1.25-14.83-5.31-18.48l-42.37-23.55c-6-3.34-13.7-1.19-17.06,4.84l-21.42,38.5c-3.38,6.07-2.19,14.05,4.32,17.67l43.44,24.14c6.08,3.38,12.72,1.27,16.98-4.42ZM477.43,752.98l27.99-10.72-6.72-17.22c-2.37.84-4.99,1.52-5.69.51-.58-.84-1.08-3.44-1.02-4.82l27.26-9.82,3.02,5.57-5.11,2.79,6.59,16.93,28.52-11.06-6.48-16.77-6.03.97-11.32-29.63,5.11-2.61-6.74-17.12-28.52,10.91,6.48,17.16,5.72-1.72,2.59,7.31-28.3,10.1-2.97-7.36,5.89-2.72-6.56-17.18-28.65,9.95,6.25,18.07,5.66-1.09,11.35,29.59-4.85,2.83,6.54,17.13ZM321.88,726.39c1.35.3,3.56,4.25,3.84,4.96l-4.4,19.52,32.75,6.88,3.65-17.29c-6.16-.42-9.15-4.24-10.75-9.53,7.48,1.26,13.97-2.12,15.49-9.39l3.94-18.74c1.61-7.63-3.48-14.57-11.05-16.19l-59.13-12.61-3.83,17.41,4.79,1.9-6.71,31.27-5.27.49-3.51,17.36,27.92,5.91,3.65-17.65-4.1-2.37c-.81-.47.8-3.43,1.48-4.42l11.27,2.5ZM430.92,759.81l-1.35-17.84-5.93-.06-2.74-36.56,11.15-.83,1.14,8.94,17.52-1.1-1.8-26.72-76.8,5.35,1.97,27.66,17.74-1.44-.45-9.68,10.62-.52,2.72,35.53-5.52,1.79,1.36,17.75,30.37-2.27Z"/>
    <path class="cls-23" d="M21.86,459l17.36-5.79c7.73-2.58,15.83-4.28,23.78-6.33l36.88-9.52-5.44,34.26c-3.06.85-4.98,1.41-7,2.68l6.72.25c-7.29,38.29-12.56,84.28-20.77,119.87-24.75-30.11-45.75-99.19-51.53-135.42Z"/>
    <path class="cls-13" d="M743.67,200.89c-27.73,5.96-56.9,27.62-68.62,54.59l-23.92,7.1,20.15-52.21,77.12-21.88-4.73,12.39Z"/>
    <path class="cls-19" d="M415.07,17.01c-12.06-.71-25.08-.73-37.14,0l-.9-2h38.93s-.9,2.01-.9,2.01Z"/>
    <path class="cls-14" d="M63.33,445.07l-.33,1.82c-7.95,2.05-16.06,3.75-23.78,6.33l-.06-1.01,24.17-7.14Z"/>
    <path class="cls-4" d="M39.15,452.21l.06,1.01-17.36,5.79c-.08-.5-.46-1.43-.57-1.92,5.84-1.63,12.08-3.16,17.87-4.87Z"/>
    <path class="cls-9" d="M452.16,226.5l7.81-49.82-94.03,28.85-14.75,90.1-44.97,13.98c1.28,10.3,3.56,19.68,3.8,31.39l-27.9-61.33-6.67,1.08-18.93-41.51-88.03,26.87c49.54-85.86,142.9-136.62,241.09-131.7,91.1,4.56,173.18,56.09,216.95,136.13l-25.2,7.86-1.12-12.84-18.79,5.38-2.76-45.1-94.12,28.89-25.06,67.74,16.24-102.52-23.57,6.58Z"/>
    <path class="cls-12" d="M598.19,160.72c-1.14.33-3.08,1.35-4,2.28l-9.9,10.03,49.81,49.8c1.45,1.45,3.11,2.32,4.72,2.23-.36.69-1.07,1.73-2.08,2.9l-50.73-50.81c-1.67-1.67-3.04-4.27-3.89-6.02,3.93,2.1,9.5-14.3,13.03-16.25l3.03,5.84Z"/>
    <g>
      <path class="cls-20" d="M380,0c-.27.05,1.66,1.01,2.19,1.01h27.61c.56,0,2.49-.97,2.21-1.01h11c1.58,1.97,3.92,1.65,6.94,1.9,121.57,10.21,231.27,75.92,298.32,178.91l42.41-11.5-12.38,29.57c46.95-1.81,87.19,30.27,96.37,76.29,1.67,8.38,1,13.09,2.34,13.82v9l-.84,1.84c-3.06,37.62-27.46,70.47-63.72,82.72,7.79,211.55-151.45,389.42-360.24,409.13-4.5,2.71-13.34-.06-13.2,2.28h-14c.25-.02-1.66-1.03-2.18-1.03h-12.64c-.52,0-2.44,1.01-2.18,1.03h-14c6.69.47-21.24-3.03-15.05-2.44-100.42-9.63-193.17-57.06-259.73-132.88C44.34,596.12,10.08,518.12,1.8,435.33l-.96-9.55c-.09-.89-.56-2.5-.84-2.8v-10c.05.27,1.01-1.66,1.01-2.19v-27.61c0-.56-.97-2.49-1.01-2.21v-11c.7-3.49,1.35-7.24,1.76-11.37C12.03,253.19,63.72,156.66,145.93,89.8,207.97,39.34,283.7,8.43,363.52,1.74c1.56-.13,3.71-1.17,4.48-1.74h12ZM377.93,17C237.78,25.38,119.21,104.35,52.42,232.45c-28.27,54.23-43.54,168.01-31.13,224.63.11.5.49,1.42.57,1.92,5.78,36.23,26.78,105.31,51.53,135.42,8.21-35.59,13.48-81.59,20.77-119.87l-6.72-.25c2.03-1.27,3.94-1.83,7-2.68l5.44-34.26-36.88,9.52.33-1.82,37.44-12.18,25.03-153.38,27.01-8.65c36.82-70.84,102.71-122.08,179.62-140.58,120.18-28.9,243.93,26,303.98,134.47l25.32-64.57,50.09-14.49C643.9,84.03,534.67,24.02,415.07,17.01l.9-2.01h-38.93s.9,2,.9,2ZM452.16,226.5l23.57-6.58-16.24,102.52,25.06-67.74,94.12-28.89,2.76,45.1,18.79-5.38,1.12,12.84,25.2-7.86c-43.77-80.04-125.85-131.56-216.95-136.13-98.19-4.92-191.56,45.84-241.09,131.7l88.03-26.87,18.93,41.51,6.67-1.08,27.9,61.33c-.24-11.71-2.52-21.09-3.8-31.39l44.97-13.98,14.75-90.1,94.03-28.85-7.81,49.82ZM743.67,200.89l4.73-12.39-77.12,21.88-20.15,52.21,23.92-7.1c11.72-26.97,40.9-48.62,68.62-54.59ZM406.15,338.51c6.85-1.86,9.59-2.67,13.78-4.54l22.38-137.24-63.71,19.6-11.98,74.51,33.97-10.14,5.57,57.8ZM737,210.08c-22.44,5.24-43.19,19.98-53.58,40.71l-2.15,4.29c-.34.68-2,2.34-2.64,3.14-.59.75.27,2.03,1.29,2.73l-.17,1.98c-.27.23-.78.62-.89.94l-1.06,3.05c-.05-.06-1.42.9-1.64,1.33l-2.98,5.75c-.29.55-.72,1.41-.76,2l-.24,3.05-4.99,3.17-1.41-.46-24.89,6.84-6.2,16.53,32.05-9.66c.63.06,2.48,1.56,2.57,2.61l.83,9.88c.03.42.42,1.67.76,1.73l1.27.25c.52,1.69,1.06,4.09,1,5.87l-3.1,2.13c-.73-1.65-2.84-2.38-4.79-1.84l-39.2,10.88-6.21,16.51,43.97-13.34c-.35-.14.76,2.25,1.28,2.05l7.04-2.74c1.86-1.62,3.34-2.37,5.09-2.6.45,1.43,1.95,3.64,2.12,5.15.2,1.8.77,2.43,1.91,3.75,1.42,1.63,2.72,4.36,3.93,6.01-.36,2.7,1.54,5.59,4.05,6,8.47,7.08,5.44,7.14,16.27,14.31.5.33,1.51,1.88,1.89,1.62l1.59-1.08,1.7,2.04c.4.48,1.6-1.16,2.25-1.96l.89,2.34c-.5.42-.88,2.22-1.12,2.87-.22.61,1.96.72,2.46.77,6.27,5.04,14.55,7.98,22.81,10,26.49,6.5,51.12-.9,72.13-16.69,1.56-1.17,3.94-1.77,4.5-3.89.41-1.53,2.93-3.85,4.41-4.35,2.09-.7,2.8-2.92,3.92-4.64,6.29-9.64,12.34-19.15,15.68-30.75.61-2.13,1.22-5.17-.01-6.52-1.59-1.74-4.35-2.41-7.01-3.34l2.48-2.73c.39-.43.12-1.36-.05-2.05l.23-.89,3.58-3.58.07,7.35,3.9-2.61c3.43,4.17,2.04-18.66,1.93-20.02-.3-3.89-6.69-30.44-10.74-29.74-2.15-2.22-18.99-31.26-23.47-22.36l4.59,5.38-4.44-.94c-.32-.07-.94-.15-1.3-.2-.21-1.98-2.99-2.49-5.35-2.57l5.19-2.05-2.32-1.39c-.27-.16.52-.98.77-1.39l-.84-2.22c-.18-.47.68-1.49.98-2.17-4.19-2.59-8.74-5.74-13.17-7.77l-7.67-3.52-.19-1.61c-.04-.32-.66-.24-.72.09l-.23,1.39-3.8-1.59c1.46-.23-.51-2.06-1.25-2.11s-2.29.61-2.82,1.07c-.54-.02-1.52-.03-2-.17l-.07-1.54c-.02-.39-1.24-.37-1.92-.53-11.3-2.54-22.62-2.72-33.96-.11-.72.17-1.92.26-1.96.65s-.07,1.08-.09,1.51ZM569.52,288.24l-2.66-45.77-72.72,22.38-18.63,52.41,94.02-29.02ZM131.73,333.76c-.09-.08-1.91.35-1.68.78l.87,1.61-6.2,40.6c-.07-.09-1.89.36-1.67.78l.82,1.52-4.13,27.7c-.09-.08-1.95.35-1.71.78l.94,1.66-.13,3.62c-.08-.08-2.08.24-1.82.68l.96,1.71-.27,4.55c-.08-.08-1.88.35-1.66.77l.82,1.53-.17,3.7-1.71.88c-.46.23.34,1.97.51,2.45s1.58-1,1.69-1.22l62.63-18.92c.82-.25,2.56-.42,2.67-1.26l.54-3.85,1.16-10.49,8.36-49.94c.53-3.19,1.19-6.08,2.16-10.08l10.56,22.06.8-2.71,19.26,41.92,75.24-23.28-52.1-115.02-110.02,34.1-6.73,43.37ZM619.53,309.68l5.89-16.75-23.12,6.32.94,15.59,16.28-5.16ZM393.7,342.5l-4.59-45.4-68.69,21.14,7.01,44.86,66.27-20.6ZM520.95,340.39l50.59-15.71-.93-16.81-50.71,13.9c-.1,6.4.05,12.18,1.05,18.62ZM512.21,343.03l6.7-20.9-50.38,13.78-7.58,22.93,51.26-15.82ZM605.36,345.26l5.5-13.99-6.87,1.8,1.37,12.2ZM573.53,357.94l-.96-16.36-51.67,14.22,1.28,17.97,51.36-15.84ZM675.67,360.59c2.6-6.61,4.58-10.52,6.4-17.59l-69.37,18.81-7.99,20.67,70.96-21.89ZM413.86,371.75l3.24-21.78-9.8,3.08,1.96,20.21c.06.66,2.63,1.39,3.06.92s1.44-1.74,1.55-2.43ZM397.03,378.63l-2.44-22.46-65.52,18.03,3.8,24.27,64.15-19.83ZM499.09,380.95l6.69-20.95-50.69,13.83-7.75,23.04,51.76-15.91ZM78.42,604.17c74.7,114.8,203.97,179.61,339.87,171.84,96.87-5.54,188.62-48.7,255.19-119.59,68.47-72.57,105.33-169.52,102.6-269.59-8.69.04-17.35.89-25.8-.39-17.58-2.67-33.58-9.29-47.8-19.3l-18.24,5.09-13.82,32.41c-2.23,88.3-47.52,169.3-119.3,218.37-124.62,85.19-294.17,54.01-380.15-70.59l-4.33,24.43-88.22,27.3ZM575.69,391.43l-1.46-19-51.78,14.19.94,21.01,52.29-16.2ZM580,445.84l-1.69-.14-.38-13.53,1.31-3.56c.27-.72-1.44-1.92-1.97-1.88l-1.07-23.68.91-.73c.39-.32-1.33-1.93-1.56-1.47l-.87,1.77-50.92,13.72c-.32,0-2.33-.73-2.42-.15-.28,1.83-.64,10.1,2.45,9.79,0,2.48.11,5.51.27,7.99-.39.01-1.14.04-1.53.02s-.69,1.5-.67,1.97l1.28,23.94,1.13,23.29.65,26.29c.02.65,2.31,1.45,2.47,1.26l1,21.32c-1.34-1.45-1.38-3.98-2.17-7.22-.22,3.24-.14,6.85.14,10.04l2.27-.15c1.08.14,3.23.2,4.63-.2l77.59-22.28,57.75-135.71-68.96,18.78-19.66,50.51ZM240.16,427.14l75.14-23.28-10.46-23.03-76.37,20.99,11.69,25.33ZM342.01,429.98c.62.42,2.72,1.13,3.56.87l17.46-5.51,24.64-7.76c.9-.28,2.36-1.92,2.39-2.63,2.95-.85,5.96-2.21,9.88-3.6l-2.03-21.79-63.8,17.49,3.49,22.66,4.42.27ZM485.73,419.3l8.41-24.84-51.55,14-9.59,27.04,52.72-16.2ZM226.21,431.29l-9.43-19.84c-1.91,9.09-3.02,15.63-3.83,23.91l13.26-4.07ZM253,455.87v1.57c0,.37,1.42.94,1.53.59l.62-1.95,69.74-21.28c.11-8.45-1.98-16.42-6.65-23.44l-75.83,20.9,10.59,23.6ZM110.01,466.94c-.07.46,0,1.35.01,1.85-.76,2.19-1.37,4.83-1.77,7.19-.57.18-1.1.24-1.06.6l.17,1.7-16.91,107.29,62.68-19.16,1.85-4.39,1.68.87,5.39-31.93,7.99-48.95,2.2-13.57,2.43-15.09c.21-1.29-1.82-4.5-1.63-5.28l.96-2.03c1.47.62,2.3.51,2.14-.39-.36-2.11-.91-3.17-1.99-2.85l4.31-26.99-63.23,17.26-5.22,33.84ZM371.71,427.39c-.29-.39-2.09-.92-2.85-.72l-28.04,7.35c-.82.22-1.87,1.55-1.72,2.81l3.36,26.71,59.28-17.86,1.69.35c.36.07.9-1.26.59-1.45l-1.1-.7-2.19-23.74-29.02,7.26ZM406.05,475.17l1.03-1.83c.34-.6-1.43-1.75-1.79-1.61l-.36-8.57,1.16-1.83c.38-.6-1.45-1.72-1.83-1.59l-.32-6.58,1.19-1.87c.39-.61-1.44-1.62-2.14-1.44l-59.91,15.42c-1.56-.12-2.36.61-2.28,2.17.09,1.9.87,3.68,2.39,3.56l.11,1.74-1.02,2.76c-.3.81,1.1,2.38,1.94,2.37l-.11,2.16-.53,2.37c-.13.58,1.05,1.27,1.63,1.43l.22,3.13-1.38.64c-.33.15.11,1.37.48,1.37h1.64c.36.95.22,3.02-.17,3.96-.28.66-1.19,1.78-.95,2.45.3.84,1.73,2.18,2.43,2.54-.12.51-.44,1.48-.48,1.99-.56,7.24,2.26,21.27,3.71,28.41l1.46.57c.05.78.09,2.15.1,2.91l-.66,2.32c-.18.62,1.34,1.72,1.74,1.83l.09,2.6-1.42,1c-.32.23.13,1.42.53,1.42h1.84s-.39,3.97-.39,3.97l-1.14,1.77c-.42.65,1.92,1.56,2.26,1.35l-.19,3.83c-1.07,5.04,1.06,10.95,1.8,16.43l1.5.57c.01.48.1,1.39.15,1.92l-.9,2.46c-.22.59,1.27,1.34,1.73,1.56,1.08,3.14,1.7,6.95,1.22,10.14l-1.46.56c-.37.14.21,1.6.6,1.55.42-.06,1.26-.17,1.63-.28l73.6-22.16,47.94-136.89-51.88,13.89-21.36,58.24c-3.19-8.23-2.52-16.61-3.45-24.71ZM338.03,431.13c-.57.03.84,2.44,1.25,2.03l1.21-1.22c.26-.26.17-.93-.2-.91l-2.25.1ZM239.67,461.07l-11.36-24.87-16.59,4.49-4.97,30.41,32.92-10.03ZM330.71,469.35c-5.81,1.42-7.3,2.39-11.17,1.49l10.84-3.89-4.22-26.48-71.16,19.46,30.05,65.92,51.79-15.94-6.14-40.56ZM240.88,463.84l-34.56,9.82-14.35,88.02c51.99,64.65,131.11,100.82,214.14,97.68,82.69-3.12,160.11-45.36,207.2-114.55l-50.91,13.61-1.34-18.84-44.56,12.53-4.12-89.62-43.45,124.82-73.59,22.61-3.25-19.11-40.78,12.51-9.59-61.71-23.11,7.04-7.65-16.04-34.02,10.27-36.05-79.04ZM156,565.47c0-.28-.22-.5-.5-.5s-.5.22-.5.5.22.5.5.5.5-.22.5-.5Z"/>
      <path class="cls-22" d="M528.64,534.74l-.24-2.67-1-21.32c-.09-1.95.1-4.54.3-6.53.26-2.63.48-5.27-.82-7.38l-.8-19.73c.13-.31.63-1.4.58-1.33-.02.02-.66-.9-.73-.99l-.84-20.75c.89-1.16.87-3.04,0-4.24l-1.02-15.82c-.16-2.48-.26-5.51-.27-7.99l-.02-9.64,50.92-13.72,1.52.44,1.07,23.68c.08,1.85.13,3.97.65,5.44l.38,13.53c.01.41-.2,1.27-.29,1.74-.08.39.85.43,1.45.54s.49-1.49.53-2.14l19.66-50.51,68.96-18.78-57.75,135.71-77.59,22.28c-1.4.4-3.55.34-4.63.2Z"/>
      <path class="cls-21" d="M361.21,586.8l-.77-1.83c.48-3.19-.14-7-1.22-10.14.3-1.3.13-3.71-.83-4.02-.05-.53-.14-1.44-.15-1.92-.09-3.57-.86-10.48-1.55-14.35l-.41-2.28c-.06-.31-1.24-.36-1.35-.37l.19-3.83.44-2.45c.08-.44-1.09-.61-1.55-.66l.39-3.98.48-1.45c.14-.42-1.48-1.2-1.43-.96l-.09-2.6c.16-1.44-.03-3.9-1.08-4.14-.01-.76-.05-2.13-.1-2.91-.61-9.13-2.14-18.23-3.48-28.02l-1.69-.96c.04-.51.36-1.48.48-1.99.37-1.6.33-5.23-1.48-4.99.4-.94.53-3.01.17-3.97l-.75-2-.22-3.13c-.04-.55.18-1.84.26-2.66.05-.56-.68-.98-1.36-1.14l.11-2.16c.33-1.7.29-4.47-.92-5.13l-.11-1.74c.12-1.85.06-3.82-.11-5.73l59.91-15.42.95,3.31.32,6.58c.05.94.42,2.74.67,3.41l.36,8.57c.04.98.44,2.81.76,3.43.93,8.1.26,16.49,3.45,24.71l21.36-58.24,51.88-13.89-47.94,136.89-73.6,22.16Z"/>
      <path class="cls-21" d="M406.15,338.51l-5.57-57.8-33.97,10.14,11.98-74.51,63.71-19.6-22.38,137.24c-4.19,1.87-6.93,2.68-13.78,4.54Z"/>
      <polygon class="cls-21" points="569.52 288.24 475.51 317.26 494.14 264.85 566.86 242.47 569.52 288.24"/>
      <polygon class="cls-21" points="393.7 342.5 327.42 363.1 320.41 318.24 389.11 297.1 393.7 342.5"/>
      <path class="cls-13" d="M402.92,443.87l-1.18,1.8-59.28,17.86-3.36-26.71c11.02-2.89,22.15-5.68,32.6-9.45l29.02-7.26,2.19,23.74Z"/>
      <polygon class="cls-13" points="397.03 378.63 332.87 398.46 329.07 374.19 394.59 356.17 397.03 378.63"/>
      <path class="cls-13" d="M390.06,414.95c-16.12,4.62-32.34,9.27-48.05,15.03l-4.42-.27-3.49-22.66,63.8-17.49,2.03,21.79c-3.92,1.39-6.92,2.76-9.88,3.6Z"/>
      <polygon class="cls-17" points="485.73 419.3 433 435.51 442.59 408.46 494.14 394.46 485.73 419.3"/>
      <path class="cls-17" d="M675.67,360.59l-70.96,21.89,7.99-20.67,69.37-18.81c-1.82,7.07-3.8,10.98-6.4,17.59Z"/>
      <polygon class="cls-17" points="575.69 391.43 523.39 407.63 522.45 386.62 574.23 372.43 575.69 391.43"/>
      <polygon class="cls-17" points="499.09 380.95 447.33 396.86 455.09 373.83 505.78 360 499.09 380.95"/>
      <polygon class="cls-17" points="512.21 343.03 460.95 358.85 468.53 335.92 518.92 322.14 512.21 343.03"/>
      <path class="cls-17" d="M520.95,340.39c-1-6.45-1.14-12.22-1.05-18.62l50.71-13.9.93,16.81-50.59,15.71Z"/>
      <polygon class="cls-17" points="573.53 357.94 522.17 373.78 520.9 355.81 572.57 341.59 573.53 357.94"/>
      <path class="cls-17" d="M670.09,317.92l2.27,9.46-8.5,2.75-43.97,13.34,6.21-16.51,39.2-10.88c1.95-.54,4.06.19,4.79,1.84Z"/>
      <path class="cls-17" d="M667.2,282.21c-.38,4.41-.58,8.86-.45,13.25l-32.05,9.66,6.2-16.53,24.89-6.84,1.41.46Z"/>
      <polygon class="cls-9" points="619.53 309.68 603.25 314.84 602.31 299.24 625.42 292.92 619.53 309.68"/>
      <path class="cls-5" d="M524.07,433.98l1.02,15.82-1.29,2.62c-.25.5.94,1.45,1.3,1.62l.84,20.75c-.18.04-1.38,1.24-.93,1.52.29.19.87.64,1.09.8l.8,19.73c-1.34,1.98-1.86,6.69.82,7.38-.19,1.98-.39,4.58-.3,6.53-.17.19-2.46-.6-2.47-1.26l-.65-26.29-1.13-23.29-1.28-23.94c-.02-.47.28-1.98.67-1.97s1.14,0,1.53-.02Z"/>
      <path class="cls-8" d="M413.86,371.75c-.1.69-1.11,1.96-1.55,2.43s-2.99-.26-3.06-.92l-1.96-20.21,9.8-3.08-3.24,21.78Z"/>
      <path class="cls-5" d="M672.19,279.04c-.8,10.35-.64,20.52,0,30.88l-1.27-.25c-.34-.07-.73-1.32-.76-1.73l-.83-9.88c-.09-1.04-1.94-2.55-2.57-2.61-.14-4.38.06-8.84.45-13.25l4.99-3.17Z"/>
      <path class="cls-5" d="M390.06,414.95c-.04.71-1.49,2.34-2.39,2.63l-24.64,7.76-17.46,5.51c-.84.27-2.95-.44-3.56-.87,15.71-5.76,31.93-10.42,48.05-15.03Z"/>
      <path class="cls-5" d="M371.71,427.39c-10.45,3.76-21.59,6.56-32.6,9.45-.16-1.26.9-2.6,1.72-2.81l28.04-7.35c.76-.2,2.56.33,2.85.72Z"/>
      <path class="cls-5" d="M352.17,528.9l-1.46-.57c-1.45-7.14-4.27-21.17-3.71-28.41l1.69.96c1.34,9.79,2.87,18.89,3.48,28.02Z"/>
      <path class="cls-5" d="M677.27,326.83c-1.75.22-3.23.98-5.09,2.6l-7.04,2.74c-.51.2-1.63-2.18-1.28-2.05l8.5-2.75-2.27-9.46,3.1-2.13c.93.93,1.43,2.54,2,4.37l2.07,6.67Z"/>
      <polygon class="cls-9" points="605.36 345.26 604 333.06 610.87 331.27 605.36 345.26"/>
      <path class="cls-5" d="M358.23,568.89l-1.5-.57c-.74-5.48-2.87-11.39-1.8-16.43.11.01,1.3.06,1.35.37l.41,2.28c.69,3.88,1.46,10.78,1.55,14.35Z"/>
      <path class="cls-5" d="M523.77,416.34l.02,9.64c-3.08.32-2.73-7.96-2.45-9.79.09-.58,2.1.15,2.42.15Z"/>
      <path class="cls-5" d="M528.4,532.07l.24,2.67-2.27.15c-.28-3.19-.36-6.8-.14-10.04.8,3.23.84,5.77,2.17,7.22Z"/>
      <path class="cls-5" d="M343.09,465.28c.17,1.91.23,3.88.11,5.73-1.53.12-2.31-1.67-2.39-3.56-.07-1.56.72-2.29,2.28-2.17Z"/>
      <path class="cls-5" d="M344.22,477.88c-.84,0-2.24-1.56-1.94-2.37l1.02-2.76c1.2.66,1.24,3.43.92,5.13Z"/>
      <path class="cls-10" d="M577.94,432.18c-.53-1.47-.57-3.59-.65-5.44.53-.04,2.23,1.16,1.97,1.88l-1.31,3.56Z"/>
      <path class="cls-5" d="M359.22,574.83c-.47-.22-1.95-.97-1.73-1.56l.9-2.46c.96.31,1.14,2.72.83,4.02Z"/>
      <path class="cls-5" d="M345.21,483.84c-.58-.15-1.76-.85-1.63-1.43l.53-2.37c.67.16,1.41.59,1.36,1.14-.08.82-.3,2.1-.26,2.66Z"/>
      <path class="cls-5" d="M347.48,497.93c-.69-.36-2.13-1.7-2.43-2.54-.24-.67.67-1.79.95-2.45,1.81-.25,1.84,3.39,1.48,4.99Z"/>
      <path class="cls-5" d="M355.12,548.06c-.34.21-2.68-.7-2.26-1.35l1.14-1.77c.46.05,1.63.23,1.55.66l-.44,2.45Z"/>
      <path class="cls-5" d="M353.35,535.96c-.4-.11-1.92-1.21-1.74-1.83l.66-2.32c1.04.24,1.24,2.7,1.08,4.14Z"/>
      <path class="cls-5" d="M354.4,540.97h-1.84c-.4,0-.85-1.18-.53-1.41l1.42-1c-.05-.24,1.57.54,1.43.96l-.48,1.45Z"/>
      <path class="cls-10" d="M404.93,463.16c-.25-.67-.62-2.48-.67-3.41.37-.13,2.2.99,1.83,1.59l-1.16,1.83Z"/>
      <path class="cls-10" d="M403.94,453.17l-.95-3.31c.7-.18,2.52.83,2.14,1.44l-1.19,1.87Z"/>
      <path class="cls-10" d="M406.05,475.17c-.32-.62-.72-2.45-.76-3.43.35-.15,2.13,1,1.79,1.61l-1.03,1.83Z"/>
      <path class="cls-5" d="M689.28,347.74c-2.51-.41-4.41-3.3-4.05-6,1.35,1.84,3.57,3.64,4.05,6Z"/>
      <path class="cls-5" d="M338.03,431.13l2.25-.1c.37-.02.46.65.2.91l-1.21,1.22c-.4.41-1.82-2-1.25-2.03Z"/>
      <path class="cls-10" d="M401.75,445.68l1.18-1.8,1.1.7c.31.2-.23,1.53-.59,1.45l-1.69-.35Z"/>
      <path class="cls-5" d="M346.17,488.97h-1.64c-.37,0-.82-1.21-.48-1.36l1.38-.64.75,2Z"/>
      <path class="cls-10" d="M580,445.84c-.04.65.06,2.25-.53,2.14s-1.53-.14-1.45-.54c.09-.47.31-1.33.29-1.74l1.69.14Z"/>
      <path class="cls-5" d="M361.21,586.8c-.38.11-1.21.22-1.63.28-.39.06-.96-1.41-.6-1.55l1.46-.56.77,1.83Z"/>
      <path class="cls-10" d="M576.21,403.06l-1.52-.44.87-1.77c.22-.45,1.95,1.16,1.56,1.47l-.91.73Z"/>
      <path class="cls-5" d="M681.29,335.74c-1.15-1.32-1.72-1.96-1.91-3.75l1.91,3.75Z"/>
      <path class="cls-5" d="M672.43,275.99c.05-.59.47-1.45.76-2l-.76,2Z"/>
      <path class="cls-4" d="M527.7,504.22c-2.68-.7-2.15-5.4-.82-7.38,1.29,2.11,1.08,4.75.82,7.38Z"/>
      <path class="cls-4" d="M525.09,454.03c-.36-.17-1.55-1.12-1.3-1.62l1.29-2.62c.88,1.2.9,3.07,0,4.24Z"/>
      <path class="cls-4" d="M526.08,477.11c-.21-.17-.79-.61-1.09-.8-.44-.29.75-1.49.93-1.52.07.09.72,1.02.73.99.05-.06-.45,1.02-.58,1.33Z"/>
      <g>
        <path class="cls-22" d="M206.08,352.67c-3.86-8.64-7.47-16.99-12.65-26.66l-13.59,82.92-62.63,18.92-.49-2.12.17-3.7c.21-.17.8-1.64.83-2.31l.27-4.55c.24-.33.84-1.72.86-2.39l.13-3.62c.18-.37.67-1.77.77-2.43l4.13-27.7c.18-.19.74-1.65.85-2.3l6.2-40.6c.19-.32.7-1.73.81-2.39l6.73-43.37,110.02-34.1,52.1,115.02-75.24,23.28-19.26-41.92Z"/>
        <path class="cls-21" d="M167.88,482.81l-5.05,1.76,4.24.61-12.08,76.85-1.85,4.39-62.68,19.16,16.91-107.29c.02.14,1.72-.43,1.54-.84l-.65-1.46c.4-2.35,1.01-4.99,1.77-7.19,3.43-.07,7.94-3.39,10.96-3.65,8.35-.73,16.12-5,23.96-6.88l27.69-6.65-4.76,31.2Z"/>
        <path class="cls-21" d="M330.71,469.35l6.14,40.56-51.79,15.94-30.05-65.92,71.16-19.46,4.22,26.48-10.84,3.89c3.86.9,5.35-.08,11.17-1.49ZM312.56,473.38c-6.04.5-11.16,2.45-16.49,4.57,6.13-.15,11.31-1.53,16.49-4.57Z"/>
        <polygon class="cls-15" points="240.16 427.14 228.47 401.81 304.84 380.82 315.3 403.86 240.16 427.14"/>
        <path class="cls-15" d="M174.15,442.82c-.13.8-.13,2.35-.15,3.23l-.96,2.03-28.12,8.88c-8.14,2.57-16.44,5.3-24.7,7.39l-10.2,2.59,5.22-33.84,63.23-17.26-4.31,26.99Z"/>
        <path class="cls-15" d="M255.15,456.09l-2.15-.22-10.59-23.6,75.83-20.9c4.67,7.02,6.76,14.99,6.65,23.44l-69.74,21.28Z"/>
        <path class="cls-5" d="M173.04,448.08c-.19.78,1.84,3.99,1.63,5.28l-2.43,15.09-2.2,13.57-7.99,48.95-5.39,31.93-1.68-.87,12.08-76.85c.26-.6.72-1.74.81-2.38l4.76-31.2-27.69,6.65-.03-1.3,28.12-8.88Z"/>
        <path class="cls-5" d="M206.08,352.67l-.8,2.71-10.56-22.06c-.97,4-1.63,6.89-2.16,10.08l-8.36,49.94-1.16,10.49-.54,3.85c-.12.83-1.86,1.01-2.67,1.26l13.59-82.92c5.18,9.67,8.79,18.02,12.65,26.66Z"/>
        <path class="cls-4" d="M120.21,464.35l.77.79c-3.02.26-7.53,3.58-10.96,3.65-.02-.5-.08-1.4-.01-1.85l10.2-2.59Z"/>
        <path class="cls-5" d="M174,446.05c.02-.88.03-2.43.15-3.23,1.08-.33,1.63.74,1.99,2.85.15.9-.67,1.01-2.14.39Z"/>
        <path class="cls-10" d="M116.72,425.74l.49,2.12c-.11.21-1.52,1.7-1.69,1.22s-.96-2.22-.51-2.45l1.71-.88Z"/>
        <path class="cls-10" d="M117.72,419.74c-.04.66-.62,2.13-.83,2.31l-.82-1.53c-.23-.42,1.58-.86,1.66-.77Z"/>
        <path class="cls-4" d="M107.36,478.28l-.17-1.7c-.04-.37.49-.43,1.06-.6l.65,1.46c.18.41-1.52.99-1.54.84Z"/>
        <path class="cls-10" d="M118.85,412.81c-.02.66-.62,2.06-.86,2.39l-.96-1.71c-.25-.44,1.74-.76,1.82-.68Z"/>
        <path class="cls-10" d="M119.75,406.75c-.1.66-.59,2.06-.77,2.43l-.94-1.66c-.24-.43,1.61-.85,1.71-.78Z"/>
        <path class="cls-10" d="M124.72,376.74c-.1.66-.66,2.11-.85,2.3l-.82-1.52c-.23-.42,1.6-.87,1.67-.78Z"/>
        <path class="cls-10" d="M131.73,333.76c-.1.66-.61,2.06-.81,2.39l-.87-1.61c-.23-.43,1.59-.86,1.68-.78Z"/>
        <path class="cls-10" d="M255.15,456.09l-.62,1.95c-.11.35-1.54-.22-1.54-.59v-1.57s2.16.22,2.16.22Z"/>
        <circle class="cls-5" cx="155.5" cy="565.47" r=".5"/>
        <path class="cls-14" d="M144.92,456.96l.03,1.3c-7.85,1.88-15.62,6.16-23.96,6.88l-.77-.79c8.27-2.09,16.56-4.82,24.7-7.39Z"/>
        <path class="cls-20" d="M167.88,482.81c-.1.63-.56,1.77-.81,2.38l-4.24-.61,5.05-1.76Z"/>
        <path class="cls-12" d="M312.56,473.38c-5.18,3.04-10.37,4.41-16.49,4.57,5.33-2.11,10.45-4.07,16.49-4.57Z"/>
      </g>
    </g>
    <g>
      <path class="cls-21" d="M833.05,254.21c7.07,15.85,10.36,32.41,8.8,49.76l-3.9,2.61-.07-7.35-3.58,3.58-3.34-10.93-1.43,6.59c-4.21.71-4.81-8.23-7.72-8.02l-.2,4.76c-.22,5.15-8.3-7.66-9.22-6.16l3.41,7.62-2.82,1.92-9.56-6.42c-.74,2.36,4.95,6.54,4.39,7.43l-1.68,2.67c-4.52.29-5.91-6.44-10.13-6.37l5.29,8.25c-.13,1.92-3.92,4.75-5.42,3.61-2.87-2.18-4.54-3.75-8.41-4.85l6.95,8.02c-.85,1.94-4.07,5.56-5.73,4.85-2.79-1.66-5.21-4.05-8.55-4.35l7.17,7.51c-.45,1.76-3.43,6.11-5,5.35l-8.49-4.59c2.03,3.11,3.43,4.43,6.09,7.05,1.55,1.52-1.59,6.36-3.54,5.56l-8.93-4.48c2.25,3.03,4.4,4.97,6.7,7.44.38,1.61-2.15,4.95-3.63,4.68l-7.99-4.19,6.07,7.3c-.94,1.61-3.71,4.29-4.94,4.17l-5.57-2.95,2.26,7.47-2.02,1.12c-.63.35-1.7-1.32-2.32-1.98l-1.04-1.1c-.28-.3-1.45-.51-1.29-.13l.88,2.1c.32.76.75,2.66.84,3.47s-2.07,2.33-2.78,1.91c-2.34-1.41-6.58-6.19-4.08-2.24l.66,4.24c.15.97-2.72,2.2-3.6,1.75s-1.86-1.32-3.1-2.38l-1.07-.91c-.2-.17-.68-.12-.59.15l.66,1.93c.28.81.6,2.06.73,2.71s-2.48,1.35-2.77.76l-1.34-2.72c-.87-.52-1.94-1.13-1.11-.61l-.19,3.72c-.04.81-2.82,1.57-3.25.86l-2.05-3.37-.62,2.68c-.12.52-1.37,2.26-1.63,1.78l-1.69-3.11-.83-1.54c-.13-.24-.7-.28-.76-.03-.09.39-.24,1.24-.23,1.64l.07,2.13c.01.45-1.2,1.62-1.51,1.28-.45-.5-1.53-1.83-1.82-2.43l-.84-1.72c-.18-.36-.81-.24-.92.11l-1.18,3.61c-.28.85-2.38-1.13-3.54-2.2l-2.15,1.81-.89-2.34c-.65.8-1.86,2.43-2.25,1.96l-1.7-2.04-1.59,1.08c-.38.26-1.39-1.29-1.89-1.62-10.83-7.17-7.79-7.22-16.27-14.31-.48-2.36-2.7-4.16-4.05-6-1.21-1.64-2.51-4.38-3.93-6.01l-1.91-3.75c-.16-1.5-1.67-3.72-2.12-5.15l-2.07-6.67c-.57-1.83-1.07-3.44-2-4.37.05-1.78-.49-4.18-1-5.87-.64-10.35-.8-20.53,0-30.88l.24-3.05.76-2,2.98-5.75c.22-.43,1.59-1.38,1.64-1.33l1.06-3.05,1.52,1.28c.3.25,1-1.47.65-1.63l-1.28-.59.17-1.98,3.44-3.61,4.34,3.49-1.07-6.98,5.24,4.04-1.39-6.91,4.93,3.4-.6-5.25c1.57.15,3.31.95,5.62,2.09-.32-1.9-.21-3.9,1.21-5.21l3.24,5.41,1.03-6.72h3.54c.86,0,1.41,2.15,1.81,3.44.87.76,1.66,1.44,1.04.9l.54-4.61c.08-.71,2.04-1.08,2.72-.88,3.54,1.01,1.75,5.34,4.24,5.9l.37-5.05c.08-1.12,3.99-.73,4.59-.58l.54,7.31,3.06-5.65,2.67-2.55,1.85-.04c1.44,3.64,1.58,6.8,2.19,11.95l2.84-8.57c1.12-.15,4.92.66,5.91,1.37l-.55,10.33c4.51-2.32.43-10.67,6.82-9.81,7,3.38,1,6.95,3.96,12.49l2.88-9.63,5.33.25c4.65,4.02-.23,7.69,2.02,12.45,1.53-3.32,2.23-6.1,3.23-9.68,1.34-.61,5.9,0,7.44.79l-.09,10.62c2.46-2.12,2.41-6.36,3.14-9.53.77-1.27,5.23-1.27,6.28-.09l1.64,9.67c2.81-.55.17-9.89,2.06-10.2l3.8-.62c.45,2.16,1.26,6.25,2.39,9.81l.74-7.67c.1-1.03.6-2.86,1.28-3.44s3.2-.76,3.54-.34l2.91,7.92c2.11-3.66-.82-5.86.18-11.38.12-.68,2.34-1.52,2.62-.88l1.21,2.74.81,1.81c.19.42,1.29.24,1.46.09-.76-4.12-1.38-7.33-1.17-10.43,1.8.1,3.68,2.36,5.74,4.61.74-3.68-4.31-7.34-3.75-11.19l4.44.94-4.59-5.38c4.49-8.9,21.33,20.14,23.47,22.36Z"/>
      <path class="cls-15" d="M834.08,303.7c.17.7.43,1.62.05,2.05l-2.48,2.73c2.66.93,5.42,1.6,7.01,3.34,1.23,1.35.62,4.39.01,6.52-3.33,11.6-9.38,21.1-15.68,30.75-1.5,1.34-2.88,2.95-3.92,4.64-1.48.5-4,2.82-4.41,4.35-1.57,1.1-3.11,2.46-4.5,3.89-21.01,15.8-45.64,23.19-72.13,16.69-8.26-2.03-16.54-4.96-22.81-10,.83-1.26,3.59-.43,5.12.48.44-.11,1.84-1.37,2.34-1l2.45,1.82,4.29-3.04-.22,4.46,5.4-5.01.41,4.7c4.69-3.96,2.67-5.6,7.49-6.18.57-.07.1,1.71.09,2.45l-.03,1.78c0,.29.72.55.88.31,3.72-5.89-.05-3.97,5.05-7.77l1.59,4.28,3.08-6.59c.27-.57,1.97-1.32,2.56-1.48s.49,2.03.36,2.64l-.4,1.81c-.07.32.71,1.05.89.79,4.04-5.93.41-6.09,5.08-11.16.69.1,1.78.24,1.98.81l.94,2.77c-.24,2.22.66,1.41,1.56-.35-.68-3.95-.91-7.94,2.99-9.48l2.12,5.43c2.46-4.23-2.27-8.43,4.19-12.54l2.55,6.6c3.28-8.6-3.67-7.39,3.79-15.47l2.61,8.4c4.12-5.79-4.24-11.07,4.23-16.51l2.73,7.55c3.55-5.01-4.46-12.48,4.3-15.45l2.48,7.31c2.86-5.15-3.19-12.1,4.49-14.01l.61,8.04c3.91-1.87.73-10.21,3.7-12.28l1.99-.83c2.69-1.12-.87,10.26,2.52,9.56l1.67-11.71,3.77-.09-.06,8.51c1.86-2.52,2.46-5.65,3.27-8.14.35-1.07,3.78-1.28,4.08-.26l-1.39,7.6c3.32-1.74,3-8.05,5.6-7.32.57.16,2.03.8,1.84,1.36l-.89,2.69-.97,2.91c2.98-2.16,3.91-3.21,5.78-3.33Z"/>
      <path class="cls-15" d="M775,210.1c.48.14,1.46.14,2,.17l4.07,1.04,3.8,1.59c.28.11.74.11,1.13.13l7.67,3.52c4.43,2.03,8.98,5.19,13.17,7.77-.3.69-1.16,1.71-.98,2.17l.84,2.22c-.24.41-1.04,1.23-.77,1.39l2.32,1.39-5.19,2.05c2.36.07,5.14.58,5.35,2.57-1.82.69-3.59.69-6.78.84l2.82,1.5c1.71.91,2.96,2.59,2.55,4.44-1.98-.45-5.31-1.61-8.56-2.68-1.21,2.2,4.76,2.15,5.56,5.99.19.89-2.91,1.94-3.73,1.29-1.63-1.3-4.68-3.46-7.46-4.32l5.9,6.87-2.59,1.71c-1.95,1.28-6.3-7.02-10.04-7.57.21,3.74,6.73,6.4,4.96,9.09-6.37,1.34-6.26-5.61-12.52-7.49l4.35,6.95c-7.41,2.98-6.16-5.53-12.19-8.13l3.07,7.19c-9,2.9-6.89-6.26-13.41-9.52.9,3.75,2.99,5.87,1.89,7.79-8.67-.9-5.21-4.76-12.54-10.76.12,2.05.52,2.98,1.28,4.6l1.16,2.5c.24.52-1.89.72-2.12.77-6.12-1.53-4.38-5.47-10.03-9.11l2.3,6.72c-7.74.47-6.54-5.6-11.51-7.17l2.08,5.26-1.85.04c-1.64.04-4.15-1.36-5.07-2.79-.99-1.54-1.82-2.51-4-3.38l2.38,3.49-.1.83c-3.56,4.35-7.65-3.1-12.49-4.49l3.39,5.81c-3.25-.74-5.33-1.68-8.15-3.09l-1.3-.66c-.28-.14-.91.71-.71.94l1.18,1.28c.31.34,1.96,1.41,1.55,1.65l-1.71,1.02-6.19-2.84c-.38-.18-1.73-.55-2.05-.64s-.28.64-.04.89l1.09,1.16c.5.53,2.28,2.5,1.56,2.66s-2.51.46-3.22.38l-5.54-.65,2.27,3.8-6.2-.63,1.4,3.48-5.66-.33c10.39-20.72,31.14-35.46,53.58-40.71,10.18-2.38,28.79-2.62,38,.02Z"/>
      <path class="cls-14" d="M760.34,351.74l1.28.19c-4.68,5.06-1.04,5.23-5.08,11.16-.18.26-.96-.47-.89-.79l.4-1.81c.14-.61.23-2.8-.36-2.64s-2.29.91-2.56,1.48l-3.08,6.59-1.59-4.28c-5.1,3.8-1.33,1.88-5.05,7.77-.16.25-.88-.02-.88-.31l.03-1.78c.01-.74.49-2.52-.09-2.45-4.82.58-2.79,2.22-7.49,6.18l-.41-4.7-5.4,5.01.22-4.46-4.29,3.04-2.45-1.82c-.5-.37-1.9.89-2.34,1-1.53-.91-4.29-1.74-5.12-.48-.5-.04-2.68-.15-2.46-.77.23-.66.62-2.45,1.12-2.87l2.15-1.81c1.16,1.07,3.26,3.05,3.54,2.2l1.18-3.61c.11-.34.74-.47.92-.11l.84,1.72c.29.59,1.37,1.92,1.82,2.43.3.33,1.52-.83,1.51-1.28l-.07-2.13c-.01-.4.14-1.25.23-1.64.06-.26.63-.21.76.03l.83,1.54,1.69,3.11c.26.48,1.51-1.25,1.63-1.78l.62-2.68,2.05,3.37c.42.7,3.21-.06,3.25-.86l.19-3.72c-.83-.53.24.08,1.11.61l1.34,2.72c.29.59,2.9-.12,2.77-.76s-.46-1.89-.73-2.71l-.66-1.93c-.09-.27.39-.32.59-.15l1.07.91c1.24,1.06,2.22,1.94,3.1,2.38s3.76-.78,3.6-1.75l-.66-4.24c-2.49-3.94,1.74.83,4.08,2.24.7.42,2.86-1.09,2.78-1.91s-.52-2.72-.84-3.47l-.88-2.1c-.16-.38,1-.17,1.29.13l1.04,1.1c.62.66,1.69,2.33,2.32,1.98l2.02-1.12Z"/>
      <path class="cls-14" d="M834.31,302.81l-.23.89c-1.87.11-2.8,1.16-5.78,3.33l.97-2.91.89-2.69c.19-.56-1.27-1.21-1.84-1.36-2.6-.72-2.28,5.58-5.6,7.32l1.39-7.6c-.3-1.02-3.73-.81-4.08.26-.81,2.49-1.41,5.62-3.27,8.14l.06-8.51-3.77.09c.04-.31-.02-.82-.06-1.19l2.82-1.92-3.41-7.62c.93-1.5,9,11.32,9.22,6.16l.2-4.76c2.91-.2,3.51,8.74,7.72,8.02l1.43-6.59,3.34,10.93Z"/>
      <path class="cls-14" d="M693.88,248.27l.91.85.6,5.25-4.93-3.4,1.39,6.91-5.24-4.04,1.07,6.98-4.34-3.49-3.44,3.61c-1.02-.71-1.88-1.98-1.29-2.73.64-.8,2.3-2.46,2.64-3.14l2.15-4.29,5.66.33-1.4-3.48,6.2.63Z"/>
      <path class="cls-19" d="M841.86,303.97c1.56-17.35-1.73-33.91-8.8-49.76,4.04-.7,10.44,25.86,10.74,29.74.11,1.36,1.5,24.19-1.93,20.02Z"/>
      <path class="cls-5" d="M775,210.1c-9.21-2.64-27.82-2.4-38-.02.02-.43.04-1.11.09-1.51s1.24-.49,1.96-.65c11.34-2.6,22.66-2.42,33.96.11.68.15,1.9.14,1.92.53l.07,1.54Z"/>
      <path class="cls-14" d="M808.43,236.1c.36.05.98.13,1.3.2-.56,3.85,4.5,7.51,3.75,11.19-2.06-2.25-3.94-4.51-5.74-4.61-.19-.01-.54.04-.73,0,.41-1.85-.84-3.53-2.55-4.44l-2.82-1.5c3.18-.15,4.95-.15,6.78-.84Z"/>
      <path class="cls-19" d="M819.06,353.74c1.04-1.69,2.42-3.3,3.92-4.64-1.12,1.72-1.84,3.94-3.92,4.64Z"/>
      <path class="cls-19" d="M814.65,358.08c-.57,2.12-2.94,2.72-4.5,3.89,1.39-1.43,2.93-2.79,4.5-3.89Z"/>
      <path class="cls-5" d="M781.07,211.3l-4.07-1.04c.53-.46,2.08-1.11,2.82-1.07s2.72,1.87,1.25,2.11Z"/>
      <path class="cls-14" d="M678.86,263.86c.11-.31.62-.71.89-.94l1.28.59c.35.16-.35,1.88-.65,1.63l-1.52-1.28Z"/>
      <path class="cls-5" d="M786.01,213.02c-.39-.02-.86-.02-1.13-.13l.23-1.39c.05-.33.68-.41.72-.09l.19,1.61Z"/>
      <path class="cls-20" d="M806.14,302.26l.73.49c-2.97,2.08.21,10.41-3.7,12.28l-.61-8.04c-7.67,1.91-1.63,8.86-4.49,14.01l-2.48-7.31c-8.76,2.97-.74,10.44-4.3,15.45l-2.73-7.55c-8.46,5.45-.11,10.73-4.23,16.51l-2.61-8.4c-7.47,8.07-.52,6.87-3.79,15.47l-2.55-6.6c-6.46,4.1-1.73,8.3-4.19,12.54l-2.12-5.43c-3.9,1.55-3.67,5.53-2.99,9.48-.91,1.76-1.81,2.56-1.56.35l-.94-2.77c-.2-.58-1.29-.71-1.98-.81l-1.28-.19-2.26-7.47,5.57,2.95c1.23.11,4-2.56,4.94-4.17l-6.07-7.3,7.99,4.19c1.48.27,4.01-3.07,3.63-4.68-2.31-2.48-4.45-4.41-6.7-7.44l8.93,4.48c1.96.8,5.09-4.04,3.54-5.56-2.66-2.61-4.06-3.93-6.09-7.05l8.49,4.59c1.56.77,4.55-3.59,5-5.35l-7.17-7.51c3.34.3,5.75,2.69,8.55,4.35,1.66.71,4.88-2.91,5.73-4.85l-6.95-8.02c3.87,1.1,5.54,2.67,8.41,4.85,1.5,1.14,5.29-1.68,5.42-3.61l-5.29-8.25c4.22-.08,5.61,6.65,10.13,6.37Z"/>
      <path class="cls-10" d="M791.07,253.25c.2.37.63,1.02.71,1.4l-3.8.62c-1.89.31.75,9.64-2.06,10.2l-1.64-9.67c-1.04-1.18-5.5-1.17-6.28.09-.73,3.17-.68,7.4-3.14,9.53l.09-10.62c-1.54-.79-6.1-1.39-7.44-.79-1,3.58-1.7,6.37-3.23,9.68-2.26-4.76,2.63-8.42-2.02-12.45v-1.19c1.11-1.92-.98-4.04-1.88-7.79,6.52,3.26,4.41,12.42,13.41,9.52l-3.07-7.19c6.03,2.6,4.78,11.1,12.19,8.13l-4.35-6.95c6.26,1.88,6.15,8.82,12.52,7.49Z"/>
      <path class="cls-20" d="M807.02,242.87c.19.04.54-.01.73,0-.21,3.1.4,6.31,1.17,10.43-.17.15-1.27.33-1.46-.09l-.81-1.81-1.21-2.74c-.28-.63-2.5.21-2.62.88-.99,5.51,1.93,7.72-.18,11.38l-2.91-7.92c-.34-.42-2.86-.24-3.54.34s-1.18,2.4-1.28,3.44l-.74,7.67c-1.12-3.56-1.94-7.65-2.39-9.81-.08-.38-.5-1.04-.71-1.4,1.77-2.69-4.75-5.35-4.96-9.09,3.74.55,8.09,8.85,10.04,7.57l2.59-1.71-5.9-6.87c2.78.86,5.83,3.02,7.46,4.32.82.65,3.91-.39,3.73-1.29-.8-3.84-6.77-3.78-5.56-5.99,3.25,1.07,6.58,2.22,8.56,2.68Z"/>
      <path class="cls-20" d="M750.03,247.18l.05.96c-6.39-.86-2.31,7.49-6.82,9.81l.55-10.33c-.99-.71-4.79-1.52-5.91-1.37l-2.84,8.57c-.61-5.16-.75-8.31-2.19-11.95l-2.08-5.26c4.97,1.58,3.77,7.64,11.51,7.17l-2.3-6.72c5.65,3.63,3.91,7.57,10.03,9.11Z"/>
      <path class="cls-14" d="M724.23,241.07c.18.73.47,2.03.52,2.73-.6-.15-4.51-.53-4.59.58l-.37,5.05c-2.49-.56-.7-4.89-4.24-5.9-.68-.2-2.64.18-2.72.88l-.54,4.61c.62.54-.17-.15-1.04-.9-.4-1.29-.95-3.45-1.81-3.45h-3.54s.12-1.16.12-1.16l1.71-1.02c.4-.24-1.24-1.31-1.55-1.65l-1.18-1.28c-.21-.23.43-1.08.71-.94l1.3.66c2.82,1.42,4.9,2.35,8.15,3.09l-3.39-5.81c4.83,1.4,8.93,8.84,12.49,4.49Z"/>
      <path class="cls-10" d="M706.01,243.52l-.12,1.17-1.03,6.72-3.24-5.41c-1.42,1.31-1.53,3.32-1.21,5.21-2.31-1.14-4.05-1.94-5.62-2.09l-.91-.85-2.27-3.8,5.54.65c.71.08,2.5-.22,3.22-.38s-1.06-2.13-1.56-2.66l-1.09-1.16c-.23-.25-.29-.98.04-.89s1.67.46,2.05.64l6.19,2.84Z"/>
      <path class="cls-14" d="M762.26,250.06v1.19s-5.33-.25-5.33-.25l-2.88,9.63c-2.96-5.54,3.03-9.11-3.96-12.49l-.05-.96c.23-.04,2.36-.25,2.12-.77l-1.16-2.5c-.75-1.62-1.15-2.55-1.28-4.6,7.34,5.99,3.87,9.86,12.54,10.76Z"/>
      <path class="cls-10" d="M812.99,298.58c.04.37.1.89.06,1.19l-1.67,11.71c-3.39.7.18-10.68-2.52-9.56l-1.99.83-.73-.49,1.68-2.67c.57-.9-5.13-5.08-4.39-7.43l9.56,6.42Z"/>
      <path class="cls-20" d="M725.94,240.13c.92,1.43,3.43,2.83,5.07,2.79l-2.67,2.55-3.06,5.65-.54-7.31c-.05-.71-.34-2-.52-2.73l.1-.83,1.62-.11Z"/>
      <path class="cls-10" d="M725.94,240.13l-1.62.11-2.38-3.49c2.18.87,3.01,1.84,4,3.38Z"/>
    </g>
    <g>
      <path class="cls-26" d="M219.09,134.28c4.3-1.44,8.24-3.43,12.94-5.68l3.29,4,29.58-15.95c1.53-.83-1.67-6.57-3.33-5.69l-35.17,18.48c-7.09,3.73-13.7.86-18.54-4.57-2.08-5.66-5.59-11.14-8.41-16.94-3.06-6.3-1.04-13.71,5.31-17.13l36.99-19.92,17.48-9.53,11.49,21.51-17.55,9.4-3.43-4.46-29.94,15.93c-.07,2.61,1.8,6,3.88,6.3l33.62-17.46c6.48-3.37,15.46-2.8,19.54,3.32,3.84,5.76,6.98,11.92,9.69,18.23,2.54,5.9-.34,12.63-5.82,15.53l-54.54,28.92-11.02-20.97,3.94-3.34ZM227.96,153.64l9.31-5.49c1.74-1.02,3.85-1.9,5.85-2.95l36.1-19.03c3.91-2.06,5.7-7.07,3.79-11.13-2.85-6.06-5.77-11.95-9.64-17.57-2.8-4.07-10.22-3.76-14.47-1.54l-32.81,17.12c-1.32.69-4.74,1.13-5.65.17-2-2.11-4.94-6.82-4.81-9.3.06-1.02,1.8-3.12,2.78-3.65l29.96-15.94c1.84-.98,4.55.83,6.26,2.76l11.14-5.78-8.2-14.88c-3.97,2.18-6.92,3.53-9.49,5.72-1.79,1.52-2.8,1.67-5.05,2.84l-36.03,18.78c-4.58,2.39-6.83,7.69-4.32,12.42l8.42,15.87c2.14,4.03,7.97,6.97,12.71,4.49l35.6-18.71c1.28-.67,4.47-1.04,5.38-.33,2.04,1.61,4.45,6.37,4.59,8.57.08,1.21-1.92,3.57-3.11,4.2l-31.07,16.49-5.36-3.21-9.77,5.51,7.89,14.56Z"/>
      <path class="cls-12" d="M219.09,134.28c-.39-1.94-14.09-4.6-11.24-9.4,4.84,5.43,11.45,8.29,18.54,4.57l35.17-18.48c1.66-.88,4.87,4.86,3.33,5.69l-29.58,15.95-3.29-4c-4.7,2.25-8.64,4.23-12.94,5.68Z"/>
      <path class="cls-1" d="M227.96,153.64l-7.89-14.56,9.77-5.51,5.36,3.21,31.07-16.49c1.19-.63,3.18-2.99,3.11-4.2-.14-2.2-2.54-6.96-4.59-8.57-.91-.71-4.09-.35-5.38.33l-35.6,18.71c-4.73,2.49-10.57-.45-12.71-4.49l-8.42-15.87c-2.51-4.73-.26-10.03,4.32-12.42l36.03-18.78c2.25-1.17,3.26-1.32,5.05-2.84,2.58-2.19,5.52-3.54,9.49-5.72l8.2,14.88-11.14,5.78c-1.71-1.94-4.42-3.74-6.26-2.76l-29.96,15.94c-.98.52-2.73,2.62-2.78,3.65-.14,2.48,2.81,7.19,4.81,9.3.91.96,4.33.52,5.65-.17l32.81-17.12c4.25-2.22,11.67-2.53,14.47,1.54,3.87,5.62,6.79,11.51,9.64,17.57,1.91,4.05.12,9.07-3.79,11.13l-36.1,19.03c-2,1.06-4.11,1.93-5.85,2.95l-9.31,5.49Z"/>
    </g>
    <g>
      <path class="cls-25" d="M315.17,98.01l30-5.84-1.23-8.7,19.03-3.72,4.96,26.68-72.8,14.09-3.63-17.36,4.81-2.05-6.07-31.12-5.38-.84-3.01-17.11,73.25-14.2,5.36,27.85-19.07,3.6-2.09-9.47-30.47,5.89,1.52,8.65,28.64-5.36,3.29,17.9-27.17,5.37c-1.23.24-.87,3.29.05,5.74ZM312.01,102.42l-2.56-12.8,28.31-5.68c-.44-3.73-1.13-7.11-2.15-10.52l-28.16,5.39-3.09-15.98,37.86-7.46,2.25,9.53,11.66-2.28-4.06-20.38-66,12.8,1.82,9.55,5.4,1.09,7.36,38.42-4.72,2.1,2.25,9.95,65.35-12.72-3.48-19.13-11.86,2.17,1.43,8.67-37.61,7.28Z"/>
      <path class="cls-8" d="M312.01,102.42l37.61-7.28-1.43-8.67,11.86-2.17,3.48,19.13-65.35,12.72-2.25-9.95,4.72-2.1-7.36-38.42-5.4-1.09-1.82-9.55,66-12.8,4.06,20.38-11.66,2.28-2.25-9.53-37.86,7.46,3.09,15.98,28.16-5.39c1.02,3.4,1.71,6.78,2.15,10.52l-28.31,5.68,2.56,12.8Z"/>
    </g>
    <g>
      <path class="cls-2" d="M595.15,154.88c-3.53,1.95-9.1,18.35-13.03,16.25-.92-.84-2.78-2.6-4.07-3.38l-54.38-32.69c-1.16-.7-2.25-2.06-2.61-3.01,1.02-.73,1.74-2.64,2.09-3.98l6.12-10.02,5.15,1.29,15.83-26.38c.58-.96-1.59-3.16-3.21-4.17l9.28-15.74,25.21,15.02-9.28,15.5-5.22-1.81-16.69,27.64,26.69,16.15,5.28-8.19,16.38,9.76-3.54,7.76ZM593.79,148.38l-10.23-5.85-5.12,8.11-33.18-19.95,20.71-34.27,5.05,1.91,5.38-8.94-18.67-11.22-5.61,9.25,3.94,3.11-20.52,34.11-4.95-1.72-4.93,8.99,57.29,34.49,10.83-18.02Z"/>
      <polygon class="cls-1" points="593.79 148.38 582.96 166.39 525.67 131.9 530.6 122.91 535.55 124.63 556.07 90.52 552.13 87.41 557.73 78.16 576.4 89.38 571.02 98.32 565.97 96.41 545.26 130.68 578.44 150.64 583.56 142.53 593.79 148.38"/>
    </g>
    <g>
      <path class="cls-19" d="M638.82,225.06c-1.61.1-3.27-.78-4.72-2.23l-49.81-49.8,9.9-10.03c.92-.93,2.86-1.95,4-2.28l3.06,2.67,22.95-22.97-2.9-4.42,12.65-12.5,20.74,20.74-12.96,12.94-4.06-3.63-23.42,23.2,22.27,22.19,7.05-6.81,13.77,13.68-18.51,19.24ZM652.12,205.97l-8.61-8.39-7.08,6.48-27.24-27.27,28.25-28.24,4.36,3.28,7.45-7.7-15.29-15.28-7.6,7.47,3.03,3.99-28.37,28.37-4.1-3.02-7.07,7.42,47.53,47.48,14.75-14.6Z"/>
      <polygon class="cls-8" points="652.12 205.97 637.37 220.57 589.84 173.09 596.91 165.67 601.01 168.69 629.38 140.32 626.35 136.33 633.95 128.86 649.25 144.14 641.8 151.83 637.44 148.55 609.19 176.79 636.43 204.06 643.51 197.58 652.12 205.97"/>
    </g>
    <g>
      <path class="cls-2" d="M546.39,670.66l-5.19,2.86-10.23-13.54,23.82-17.94,10.1,13.06-.79,3.86,11.36,6.52-1.6-13.31-4.24-.84-9.71-13.2,24.74-18.56,9.91,13.03-.44,4.1,12.06,5.03-3.88-12.24-4.35,2.45-10.73-14.29,24.3-18.36,11.17,14.45-4.99,4.32,10.06,32.78,5.09-2.74,10.85,14.65-24.91,18.72-10.11-13.45c-.53-.71.28-4.09-.27-4.53l-14.7-6.39,2.07,16.82,4.04,1.68,9.68,12.96-23.25,17.37-10.2-13.38,2.11-3.74-31.78-18.12ZM546.25,666.31l38.88,22.13-4.26,4.22,6.23,8.03,17.15-13-6.04-8.01-4.77,2.53-4.43-31.67,28.1,13.06-4.05,4.11,6.47,8.51,18.95-14.21-6.28-8.61-6.3,4.03-12.46-40.7,3.9-4.08-6.63-8.13-18.21,13.86,6.19,8.15,5.4-3.01,8.82,25.54-26.74-12.08,3.85-4.04-6.24-8.03-18.65,13.95,6.23,8.27,4.83-2.76,4.35,28.4-23.67-13.89,3.37-3.78-6.2-7.83-17.78,13.4,5.55,7.5,4.47-1.85Z"/>
      <polygon class="cls-1" points="546.25 666.31 541.79 668.16 536.23 660.67 554.02 647.26 560.22 655.09 556.85 658.87 580.52 672.77 576.17 644.37 571.34 647.13 565.12 638.87 583.77 624.92 590.01 632.95 586.16 637 612.89 649.08 604.08 623.53 598.68 626.55 592.49 618.4 610.71 604.53 617.34 612.66 613.43 616.74 625.89 657.43 632.19 653.4 638.48 662.01 619.53 676.22 613.06 667.71 617.11 663.6 589.01 650.54 593.44 682.21 598.21 679.68 604.25 687.69 587.1 700.68 580.87 692.66 585.14 688.44 546.25 666.31"/>
    </g>
    <g>
      <path class="cls-6" d="M707.82,476.81c7.46-7.25,19.66-.76,29.99,3.56,5.12,2.14,9.1,8.9,7,14.67l-21.53,59.14-22.48-8.45c1.99-5.4,3.51-9.06,4.31-14.07-4.79,7.41-10.53,12.01-18.78,8.91l-17.43-6.56c-6.05-2.28-9.16-9.34-7.02-15.36l20.98-58.91,22.82,8.31-6.53,18.58-5.67-.73-11.72,32.02c1.69,1.61,5.07,2.69,7.15,1.96l11.86-32.27c1.49-4.06,3.96-7.81,7.05-10.81ZM724.49,538.75c.38-2.26,1.55-3.71,2.36-5.88l14.16-38.05c1.58-4.24-.42-9.45-4.79-11.11l-16.6-6.29c-7.23-2.74-13.17,5.62-15.37,11.6l-11.96,32.44c-2.13,5.78-11.4,1.05-13.37-.9-.79-.78-.66-3.95-.27-5.02l12-32.72,6.17-1.3,4.2-11.14-15.83-5.81-4.22,11.3,1.4,2.25c.29.47-2.42,1.66-2.65,2.27l-14.19,38.92c-1.86,5.12.99,10,5.41,11.63l16.94,6.26c4.77,1.76,10.6-.72,12.49-5.84l13.84-37.44c.49-1.33,2.39-3.54,3.67-3.59,1.09-.04,3.39.52,4.8.93,3.4.98,6.25,3.63,4.86,7.44l-12.18,33.38-5.96.97-3.78,10.52,15.31,5.7c1.62-3.75,2.95-6.87,3.56-10.5ZM712.94,527.89l11.17-30.78c.09-1.76-5.67-3.93-6.26-2.33l-11.74,32.03c1.78,1.19,4.91,1.74,6.83,1.08Z"/>
      <path class="cls-1" d="M724.49,538.75c-.61,3.63-1.94,6.75-3.56,10.5l-15.31-5.7,3.78-10.52,5.96-.97,12.18-33.38c1.39-3.81-1.46-6.46-4.86-7.44-1.41-.41-3.71-.97-4.8-.93-1.28.04-3.18,2.26-3.67,3.59l-13.84,37.44c-1.89,5.12-7.73,7.61-12.49,5.84l-16.94-6.26c-4.42-1.63-7.28-6.52-5.41-11.63l14.19-38.92c.22-.61,2.94-1.8,2.65-2.27l-1.4-2.25,4.22-11.3,15.83,5.81-4.2,11.14-6.17,1.3-12,32.72c-.39,1.07-.52,4.23.27,5.02,1.97,1.95,11.24,6.68,13.37.9l11.96-32.44c2.2-5.98,8.14-14.34,15.37-11.6l16.6,6.29c4.37,1.66,6.37,6.87,4.79,11.11l-14.16,38.05c-.81,2.16-1.98,3.62-2.36,5.88Z"/>
      <path class="cls-12" d="M712.94,527.89c-1.92.66-5.05.11-6.83-1.08l11.74-32.03c.59-1.61,6.35.57,6.26,2.33l-11.17,30.78Z"/>
    </g>
    <g>
      <path class="cls-2" d="M686.65,579.87l-6.97-5.49,10.74-16.07,22.54,15.18-41.63,61.71-14.63-9.86,1.75-4.85-26.45-17.86-3.76,3.56-14.73-10.08,41.85-61.93,23.41,15.9-10.95,16.06-8.14-5.21-17.25,25.43c2.05,2.02,4.6,3.73,7.44,5.02l16.04-23.75,15.12,10.25-14.29,21.12c-1.02,1.51-1.25,3.74.12,4.69s3.6.15,4.52-1.22l15.25-22.58ZM691.88,578.65l-21.28,31.54-10.94-7.24,16.21-24.02-8.88-6.12-16.46,23.97-13.37-9.22,21.54-31.81,8.11,5.14,6.85-9.9-17.41-11.6-37.59,55.66,8.66,5.96,3.47-3.7,32.98,22.34-2.07,4.32c2.68,2.29,5.8,4.43,9.14,5.38l36.97-54.91-16.35-10.99-6.61,9.76,7.01,5.43Z"/>
      <path class="cls-11" d="M691.88,578.65l-7.01-5.43,6.61-9.76,16.35,10.99-36.97,54.91c-3.35-.95-6.46-3.09-9.14-5.38l2.07-4.32-32.98-22.34-3.47,3.7-8.66-5.96,37.59-55.66,17.41,11.6-6.85,9.9-8.11-5.14-21.54,31.81,13.37,9.22,16.46-23.97,8.88,6.12-16.21,24.02,10.94,7.24,21.28-31.54Z"/>
    </g>
    <g>
      <path class="cls-6" d="M477.43,752.98l-6.54-17.13,4.85-2.83-11.35-29.59-5.66,1.09-6.25-18.07,28.65-9.95,6.56,17.18-5.89,2.72,2.97,7.36,28.3-10.1-2.59-7.31-5.72,1.72-6.48-17.16,28.52-10.91,6.74,17.12-5.11,2.61,11.32,29.63,6.03-.97,6.48,16.77-28.52,11.06-6.59-16.93,5.11-2.79-3.02-5.57-27.26,9.82c-.05,1.38.44,3.98,1.02,4.82.7,1.01,3.32.33,5.69-.51l6.72,17.22-27.99,10.72ZM479.78,748.13l20.68-8.09-3.9-10.04-5.06,1.45-5.22-12.72,35.23-12.6,5.59,12.45-5.14,2.74,4,9.99,21.41-8.28-3.92-10.1-5.71,1.57-14.03-36.58,4.99-3.01-4.05-10.08-21.52,8.31,3.84,10.02,5.94-1.65,4.82,14.58-35.48,12.48-5.03-14.23,5.63-2.97-3.94-10.04-21.59,7.46,3.74,11.06,5.32-1.53,14.38,37.22-5.05,2.67,4.09,9.95Z"/>
      <polygon class="cls-1" points="479.78 748.13 475.69 738.19 480.74 735.52 466.36 698.29 461.04 699.82 457.3 688.76 478.89 681.3 482.83 691.35 477.2 694.32 482.23 708.55 517.72 696.07 512.9 681.49 506.96 683.14 503.12 673.13 524.64 664.82 528.69 674.89 523.7 677.91 537.74 714.49 543.45 712.92 547.37 723.02 525.96 731.3 521.96 721.31 527.1 718.57 521.51 706.13 486.28 718.73 491.5 731.45 496.56 730 500.46 740.04 479.78 748.13"/>
    </g>
    <g>
      <path class="cls-26" d="M172.19,682.4l-16.11-14.49,7.1-50.58-15.79,16.78,3.16,4.77-11.89,13.33-21.73-19.6,12.01-13.62,4.4,2.64,21.34-23.6-2.81-4.42,11.92-13.05,20.96,18.86-5.9,38.77,9.63-10.04-3.86-4.31,12.12-13.48,22.61,20.24-12.54,13.73-4.89-2.97-21.13,23.51,3.71,3.74-12.28,13.78ZM171.97,677.14l7.07-7.97-3.35-4.22,26.21-29.11,4.78,3.26,7.24-8.28-16.7-15.17-7.44,7.93,3.9,4.03-20.5,22.23,7.64-48.82-16.65-15.08-7.23,7.53,3.28,3.93-26.73,29.64-4.33-2.64-7.06,7.91,16.23,14.5,7.19-7.81-3.48-4.29,26.49-28.97-8.52,60.76,11.95,10.65Z"/>
      <polygon class="cls-1" points="171.97 677.14 160.02 666.5 168.53 605.74 142.04 634.7 145.52 639 138.33 646.81 122.11 632.3 129.16 624.39 133.5 627.03 160.23 597.39 156.95 593.46 164.18 585.93 180.83 601.02 173.19 649.84 193.69 627.61 189.79 623.58 197.23 615.64 213.92 630.82 206.69 639.1 201.9 635.83 175.69 664.95 179.04 669.17 171.97 677.14"/>
    </g>
    <g>
      <path class="cls-7" d="M430.92,759.81l-30.37,2.27-1.36-17.75,5.52-1.79-2.72-35.53-10.62.52.45,9.68-17.74,1.44-1.97-27.66,76.8-5.35,1.8,26.72-17.52,1.1-1.14-8.94-11.15.83,2.74,36.56,5.93.06,1.35,17.84ZM427,756.3l-.91-10.29-5.89-.34-3.37-43.85,18.69-1.28.94,8.9,10.29-.7-1.36-19.13-69.35,4.89,1.5,19.76,10.15-.25-.16-9.94,17.95-1,3.3,43.38-5.68,1.43,1,10.16,22.9-1.74Z"/>
      <polygon class="cls-8" points="427 756.3 404.1 758.04 403.09 747.87 408.78 746.44 405.48 703.06 387.52 704.07 387.68 714.01 377.54 714.25 376.04 694.49 445.39 689.61 446.75 708.73 436.46 709.43 435.51 700.53 416.82 701.81 420.19 745.66 426.09 746.01 427 756.3"/>
    </g>
    <g>
      <path class="cls-7" d="M755.87,436.43l-17.71-.44-.64-5.88-33.43-1.63-.35,10.59,9.74.69-1.32,17.76-27.41-1.57,4.04-76.83,26.68,1.54-1.03,17.72-8.84-.38-.74,11.42,33.71,1.83,1.18-5.89,17.62.82-1.5,30.26ZM752.45,432.47l.98-22.68-10.28-.6-1.14,6-41.11-2.27,1.02-18.58,8.99.14.34-10.47-18.95-.77-3.64,69.25,20.04,1.17.6-10.37-9.7-.89,1.22-17.97,40.47,2.15.76,5.87,10.39.02Z"/>
      <polygon class="cls-8" points="752.45 432.47 742.06 432.45 741.3 426.58 700.83 424.42 699.61 442.4 709.31 443.28 708.71 453.66 688.67 452.49 692.31 383.24 711.26 384 710.92 394.47 701.93 394.33 700.9 412.91 742.01 415.18 743.15 409.19 753.43 409.79 752.45 432.47"/>
    </g>
    <g>
      <path class="cls-25" d="M523.14,128.07c-.35,1.34-1.06,3.25-2.09,3.98l-30.22-9.83,4.71-16.87-14.26-4.21-5.31,16.77-29.78-9.16,4.85-15.9,5.5,1.41,27.7-27.26-3.42-2.11,5.39-17.21,35.61,10.95-5.09,16.85-3.73,1.12,7.17,36.1,5.79,2.71-2.36,8.34c-.32,1.15-.46,3.23-.46,4.32ZM501.89,103.44l2.16,8.67-5.92-1.08-2.48,8.73,22.82,6.98,2.82-8.34-4.44-3.21-8.79-44.68,6.01.72,3.21-10.04-28.49-8.86-3.31,10.29,5.76,2.83-32.58,32.07-5.38.56-2.42,8.21,22.65,6.95,2.8-8.78-5.16-2.4,5.95-6.18,24.78,7.58Z"/>
      <path class="cls-1" d="M501.89,103.44l-24.78-7.58-5.95,6.18,5.16,2.4-2.8,8.78-22.65-6.95,2.42-8.21,5.38-.56,32.58-32.07-5.76-2.83,3.31-10.29,28.49,8.86-3.21,10.04-6.01-.72,8.79,44.68,4.44,3.21-2.82,8.34-22.82-6.98,2.48-8.73,5.92,1.08-2.16-8.67ZM502.38,96.32l-4.66-23.84-16.67,17.46,21.33,6.38Z"/>
      <path class="cls-25" d="M502.38,96.32l-21.33-6.38,16.67-17.46,4.66,23.84ZM497.72,91.09l-2.23-10.76-7.63,7.79,9.86,2.97Z"/>
      <polygon class="cls-12" points="497.72 91.09 487.86 88.11 495.49 80.32 497.72 91.09"/>
    </g>
    <g>
      <path class="cls-2" d="M177.65,178.3l11.57,13.36-23.53,20.55-10.99-12.37,4-4.77-8.26-36.94-3.7,1.55-11.69-13.8,28.05-24.35,11.83,13.35-1.87,3.37,34.9,13.25c1.69-.91,3.38-2.08,5.44-3.6l11.2,12.71-24.09,20.98-11.39-13.12-11.47,9.83ZM171.22,178.94l19.5-16.77,8.43,2.89-4.14,4.57,6.01,6.59,18.23-15.9-5.91-6.83-4.37,2.36-43.33-16.43c1.67-1.83,3.52-3.9,3.7-5.15l-6.54-7.49-22.43,19.44,6.79,8.29,5.49-3.64,10.21,45.72-2.98,3.44,6.24,6.85,17.8-15.52-5.91-6.86-4.91,3.21-1.87-8.77Z"/>
      <path class="cls-1" d="M171.22,178.94l1.87,8.77,4.91-3.21,5.91,6.86-17.8,15.52-6.24-6.85,2.98-3.44-10.21-45.72-5.49,3.64-6.79-8.29,22.43-19.44,6.54,7.49c-.18,1.25-2.02,3.32-3.7,5.15l43.33,16.43,4.37-2.36,5.91,6.83-18.23,15.9-6.01-6.59,4.14-4.57-8.43-2.89-19.5,16.77ZM184.78,158.04l-22.6-8.83,5.89,23.48,16.7-14.65Z"/>
      <path class="cls-7" d="M184.78,158.04l-16.7,14.65-5.89-23.48,22.6,8.83ZM177.74,159.27l-10.07-3.87,2.48,10.35,7.59-6.48Z"/>
      <polygon class="cls-12" points="177.74 159.27 170.14 165.75 167.67 155.4 177.74 159.27"/>
    </g>
    <g>
      <path class="cls-7" d="M432.51,108.08l-61.82-3.26.97-18.09,5.04-.75,1.53-28.81c.05-.96.41-3.4-.24-3.5l-4.61-.73,1-18.03,61.52,3.29c6.33.34,10.74,6.22,10.44,12.26l-1.13,22.94c-.05,1.03-2.32,3-2,3.94s2.02,3.02,2.22,4.1c.88,4.9.86,11.78-.16,16.86-1.16,5.78-6.35,10.1-12.77,9.76ZM442.2,83.74c-.21-2.42-3.81-5.08-6.41-7.47l5.73-3.28,1.1-23.03c.2-4.28-3.57-7.84-7.69-8.06l-56.84-3.02-.74,10.04,4.91,2.09-2.02,38.89-5.03.84-.36,10.55,58.17,3.1c9.96.53,9.79-13.5,9.17-20.65Z"/>
      <path class="cls-1" d="M442.2,83.74c.62,7.15.79,21.18-9.17,20.65l-58.17-3.1.36-10.55,5.03-.84,2.02-38.89-4.91-2.09.74-10.04,56.84,3.02c4.12.22,7.89,3.78,7.69,8.06l-1.1,23.03-5.73,3.28c2.6,2.39,6.2,5.05,6.41,7.47ZM431.98,59.31c.36-3.37-2.18-6.68-5.28-6.83l-33.09-1.67-.54,14.73,32.11,1.81c1.51.09,4.71-1.01,5.51-2.18.68-1,1.03-3.29,1.31-5.86ZM430.77,84.77c.3-5.61-2.17-8.19-6.71-8.44l-31.53-1.68-.87,16.09,33.18,1.73c3.92.2,5.75-4.29,5.93-7.7Z"/>
      <path class="cls-7" d="M430.77,84.77c-.18,3.41-2,7.9-5.93,7.7l-33.18-1.73.87-16.09,31.53,1.68c4.54.24,7,2.83,6.71,8.44ZM425.21,88.75c2.09-1.36,2.5-7.1.59-8.5l-29.79-1.73-.21,8.67,29.42,1.55Z"/>
      <path class="cls-7" d="M431.98,59.31c-.28,2.56-.62,4.85-1.31,5.86-.79,1.17-4,2.27-5.51,2.18l-32.11-1.81.54-14.73,33.09,1.67c3.1.16,5.64,3.47,5.28,6.83ZM427.35,63.6c.94-2.56,1.01-6.41-.47-7.31l-29.23-1.68c-.82,2.03-.88,5.76-.05,7.53l29.75,1.46Z"/>
      <path class="cls-12" d="M425.21,88.75l-29.42-1.55.21-8.67,29.79,1.73c1.91,1.4,1.5,7.13-.59,8.5Z"/>
      <path class="cls-12" d="M427.35,63.6l-29.75-1.46c-.83-1.77-.77-5.5.05-7.53l29.23,1.68c1.48.9,1.41,4.75.47,7.31Z"/>
    </g>
    <g>
      <path class="cls-2" d="M128.25,276.93l-15.3-9.06,1.39-5.14-27.21-17.04-3.42,3.79-15.01-9.49,32.87-52.29c4.1-6.52,12.63-7.45,18.47-3.7l17.57,11.28,1.57,4.37c.43,1.2,4.62.33,5.8.87,4.37,1.98,9.5,5.12,13.41,8.08,4.75,3.6,5.83,10.58,2.66,15.68l-32.8,52.66ZM127.05,271.83l31.01-49.71c2.11-3.38.79-8.7-2.22-10.79-10.9-7.57-11.21-8.81-21.36-5.25.33-2.46,1.52-7.7-.4-8.9l-16.31-10.17c-4.49-2.8-10.66-1.36-13.54,3.25l-30.29,48.38,8.61,5.8,3.58-3.77,33.64,21.08-1.98,4.81,9.26,5.27Z"/>
      <path class="cls-11" d="M127.05,271.83l-9.26-5.27,1.98-4.81-33.64-21.08-3.58,3.77-8.61-5.8,30.29-48.38c2.89-4.61,9.05-6.05,13.54-3.25l16.31,10.17c1.92,1.2.73,6.44.4,8.9,10.15-3.56,10.46-2.32,21.36,5.25,3.01,2.09,4.33,7.41,2.22,10.79l-31.01,49.71ZM104.47,238.59l16.95-27.04c2.21-3.52,1.13-7.26-2.65-9.48-1.27-.74-3.78-1.82-5.07-1.83s-3.71,1.71-4.43,2.87l-17.29,27.64,12.5,7.83ZM143.11,224.27c2.48-3.96-.71-7.47-3.77-9.39-3.69-2.32-7.64-2.58-10.08,1.35l-16.95,27.29,13.46,8.42,17.35-27.68Z"/>
      <path class="cls-6" d="M143.11,224.27l-17.35,27.68-13.46-8.42,16.95-27.29c2.44-3.93,6.39-3.66,10.08-1.35,3.06,1.92,6.25,5.43,3.77,9.39ZM133.8,215.93l-16.53,26.41,7.34,4.59,16.53-26.41-7.34-4.59Z"/>
      <path class="cls-26" d="M104.47,238.59l-12.5-7.83,17.29-27.64c.73-1.16,3.14-2.88,4.43-2.87s3.8,1.09,5.07,1.83c3.78,2.21,4.86,5.95,2.65,9.48l-16.95,27.04ZM103.49,233.33l15.57-25.17c-.25-2.03-5.1-5.23-6.07-3.74l-15.66,24.62c1.81,1.84,3.66,3.11,6.16,4.29Z"/>
      <rect class="cls-12" x="113.63" y="227.1" width="31.15" height="8.66" transform="translate(-135.52 218.18) rotate(-57.96)"/>
      <path class="cls-12" d="M103.49,233.33c-2.5-1.18-4.36-2.45-6.16-4.29l15.66-24.62c.97-1.48,5.82,1.71,6.07,3.74l-15.57,25.17Z"/>
    </g>
    <g>
      <path class="cls-25" d="M321.88,726.39l-11.27-2.5c-.67.99-2.29,3.95-1.48,4.42l4.1,2.37-3.65,17.65-27.92-5.91,3.51-17.36,5.27-.49,6.71-31.27-4.79-1.9,3.83-17.41,59.13,12.61c7.58,1.62,12.66,8.55,11.05,16.19l-3.94,18.74c-1.53,7.27-8.01,10.64-15.49,9.39,1.6,5.29,4.6,9.11,10.75,9.53l-3.65,17.29-32.75-6.88,4.4-19.52c-.28-.71-2.49-4.66-3.84-4.96ZM334.55,738.2l-6.96-.04-1.91,9.79,25.29,5.39,2.34-9.37-4.76-2.51-9.75-15.26,11.35,1.3c3.53.4,7.74-2.6,8.47-6.06l4.18-19.76c1.02-4.84-2.51-10.17-7.51-11.24l-56.13-12.02-2.3,9.93,4.66,2.4-8.24,38.41-5.05.02-2.27,10.24,20.59,4.45,2.33-10.36c-1.66-.76-3.76-1.8-4.32-2.51l2.71-11.67,17.64,3.8,9.62,15.05Z"/>
      <path class="cls-1" d="M334.55,738.2l-9.62-15.05-17.64-3.8-2.71,11.67c.56.72,2.66,1.75,4.32,2.51l-2.33,10.36-20.59-4.45,2.27-10.24,5.05-.02,8.24-38.41-4.66-2.4,2.3-9.93,56.13,12.02c5,1.07,8.53,6.4,7.51,11.24l-4.18,19.76c-.73,3.46-4.95,6.46-8.47,6.06l-11.35-1.3,9.75,15.26,4.76,2.51-2.34,9.37-25.29-5.39,1.91-9.79,6.96.04ZM349.11,702.6c-.53-1.16-3.05-2.85-4.3-3.12l-31.94-6.8-3.68,16.9,33,6.95c6.64,1.4,7.93-11.68,6.91-13.93Z"/>
      <path class="cls-7" d="M349.11,702.6c1.02,2.25-.27,15.33-6.91,13.93l-33-6.95,3.68-16.9,31.94,6.8c1.25.27,3.77,1.96,4.3,3.12ZM344.06,713.13l1.97-9.47-30.33-6.57-1.98,9.71,30.34,6.33Z"/>
      <polygon class="cls-12" points="344.06 713.13 313.73 706.79 315.71 697.08 346.04 703.65 344.06 713.13"/>
    </g>
    <g>
      <path class="cls-26" d="M261.86,722.29c-4.26,5.69-10.9,7.8-16.98,4.42l-43.44-24.14c-6.52-3.62-7.7-11.61-4.32-17.67l21.42-38.5c3.36-6.03,11.06-8.17,17.06-4.84l42.37,23.55c6.56,3.65,8.95,11.91,5.31,18.48l-21.41,38.7ZM258.75,720.06l21.24-38.11c2.61-4.68,1.21-10.79-3.69-13.51l-42.82-23.78c-4.22-2.34-9.74-.11-11.97,3.92l-21.45,38.69c-2.38,4.3-.72,9.93,3.51,12.28l43.08,23.93c3.95,2.19,9.56,1.15,12.1-3.42Z"/>
      <path class="cls-11" d="M258.75,720.06c-2.54,4.57-8.15,5.61-12.1,3.42l-43.08-23.93c-4.23-2.35-5.89-7.99-3.51-12.28l21.45-38.69c2.23-4.03,7.75-6.26,11.97-3.92l42.82,23.78c4.89,2.72,6.29,8.84,3.69,13.51l-21.24,38.11ZM252.13,706.65l13.78-24.94c1.39-2.51.11-5.79-2.06-7.59l-28.2-15.65c-2.96-.95-5.91.12-7.39,2.78l-13.92,25.08c-1.53,2.75-.01,6.24,2.61,7.7l27.72,15.37c2.68,1.48,5.87.14,7.46-2.75Z"/>
      <path class="cls-26" d="M252.13,706.65c-1.6,2.89-4.79,4.23-7.46,2.75l-27.72-15.37c-2.62-1.45-4.14-4.95-2.61-7.7l13.92-25.08c1.48-2.67,4.43-3.73,7.39-2.78l28.2,15.65c2.17,1.8,3.45,5.08,2.06,7.59l-13.78,24.94ZM232.61,661l-15.92,28.66,31.05,17.24,15.92-28.66-31.05-17.24Z"/>
      <rect class="cls-24" x="223.79" y="666.19" width="32.78" height="35.51" transform="translate(-474.38 561.94) rotate(-60.96)"/>
    </g>
    <g>
      <path class="cls-16" d="M240.88,463.84l36.05,79.04,34.02-10.27,7.65,16.04,23.11-7.04,9.59,61.71,40.78-12.51,3.25,19.11,73.59-22.61,43.45-124.82,4.12,89.62,44.56-12.53,1.34,18.84,50.91-13.61c-47.1,69.19-124.51,111.43-207.2,114.55-83.03,3.14-162.15-33.04-214.14-97.68l14.35-88.02,34.56-9.82Z"/>
      <polygon class="cls-9" points="239.67 461.07 206.74 471.1 211.72 440.69 228.31 436.2 239.67 461.07"/>
      <path class="cls-9" d="M226.21,431.29l-13.26,4.07c.81-8.28,1.92-14.82,3.83-23.91l9.43,19.84Z"/>
    </g>
  </g>
</svg>