<?xml version="1.0" encoding="UTF-8"?>
<svg id="Layer_1" data-name="Layer 1" xmlns="http://www.w3.org/2000/svg" viewBox="0 0 872 872">
  <defs>
    <style>
      .cls-1 {
        fill: #e40b29;
      }

      .cls-2 {
        fill: #f6f6f6;
      }

      .cls-3 {
        fill: #020101;
      }

      .cls-4 {
        fill: #e50b2a;
      }

      .cls-5 {
        fill: #070404;
      }

      .cls-6 {
        fill: #f9f9f9;
      }

      .cls-7 {
        fill: #080102;
      }

      .cls-8 {
        fill: #0a0102;
      }

      .cls-9 {
        fill: #e50b29;
      }

      .cls-10 {
        fill: #f8f8f8;
      }

      .cls-11 {
        fill: #e30b2a;
      }

      .cls-12 {
        fill: #f7f7f7;
      }

      .cls-13 {
        fill: #fefefe;
      }

      .cls-14 {
        fill: #0c0c0c;
      }

      .cls-15 {
        fill: #0f0203;
      }

      .cls-16 {
        fill: #f5f5f5;
      }

      .cls-17 {
        fill: #e20b2a;
      }

      .cls-18 {
        fill: #060203;
      }
    </style>
  </defs>
  <path class="cls-13" d="M409,872H0v-410c1.34,1.31.55,4.66.86,7.04,2.2,16.79,3.68,32.76,6.93,49.43,17.52,89.81,62.76,171.68,129.1,234.6,70.36,66.74,161.4,107.94,257.85,117.03l11.45,1.08c.91.09,2.51.54,2.81.82Z"/>
  <path class="cls-13" d="M872,460v412h-410c.28-.28,1.95-.76,2.79-.84l12.43-1.05c96.92-8.17,187.91-50.49,258.45-117.48,76.91-73.04,125.21-171.75,134.42-277.5l1.07-12.33c.08-.9.54-2.51.82-2.81Z"/>
  <path class="cls-13" d="M461,0h411v413c-.47-.6-.78-2.42-.89-3.87l-.99-12.38c-6.26-78.17-34.87-152.59-80.61-216.03C715.46,78.03,600.53,11.85,474.3,1.7l-10.52-.85c-.82-.07-2.51-.58-2.79-.86Z"/>
  <path class="cls-13" d="M410,0c-3.6.89-7.26,1.24-11.68,1.62-97.87,8.35-190.12,49.6-261.56,117.23C70.58,181.49,25.32,262.97,7.94,352.52c-1.52,7.85-7.94,52.28-7.94,57.48V0h410Z"/>
  <g>
    <path class="cls-3" d="M461,0c.28.28,1.96.79,2.79.86l10.52.85c126.23,10.15,241.16,76.32,315.21,179.02,45.74,63.44,74.35,137.86,80.61,216.03l.99,12.38c.12,1.44.42,3.27.89,3.87v47c-.28.29-.74,1.91-.82,2.81l-1.07,12.33c-9.22,105.75-57.52,204.46-134.42,277.5-70.55,66.99-161.53,109.31-258.45,117.48l-12.43,1.05c-.85.07-2.52.55-2.79.84h-53c-.3-.28-1.9-.73-2.81-.82l-11.45-1.08c-96.45-9.09-187.48-50.29-257.85-117.03-66.34-62.92-111.58-144.8-129.1-234.6-3.25-16.67-4.73-32.64-6.93-49.43-.31-2.38.48-5.72-.86-7.04v-52c0-5.2,6.41-49.63,7.94-57.48,17.38-89.54,62.64-171.02,128.82-233.67C208.2,51.22,300.44,9.96,398.32,1.62c4.42-.38,8.09-.73,11.68-1.62h51ZM513.52,178.04l12.78-27.01-31.5-7.33,6.08-26.79,47.01,10.55,6.59-28.49-68.3-15.57c-3.55-.81-6.36-1.49-10.32-1.08l-31.55,138.47,68.5,15.69c3.57.82,6.46,1.38,10.08,1.39l6.4-27.67-26.32-6.09-20.82-4.93,6.11-26.69,25.26,5.57ZM399.53,227.24l31.94-7.9-20.26-37.99c6.75-6,7.49-13.48,5.62-21.07l-15.47-62.6c-3-8.42-11.63-15.49-21.03-13.18l-73.85,18.12,34.09,138.63c4.41-.59,7.99-1.2,11.6-2.17l19.54-5.22-9.35-38.89,8.84-1.95c3-.66,6.38-1.25,9.26-.94l19.08,35.17ZM643.17,256.47l41.49-50.84c6.8-8.33,5.8-19.91-2.62-26.85l-51.94-42.8c-1.13-.93-4.45-3.14-5.71-1.61l-89.36,108.73,24.7,20.29,23.48-28.39,30.65,25.21c9.56,7.86,21.39,5.98,29.31-3.73ZM271.24,250.11l31.94-25.74c9.01-7.26,8.68-19.04,1.98-27.39l-43.68-54.44c-7.76-6.77-18.16-6.26-26.09.12l-55.62,44.75,89.22,111.58,25.05-19.78-22.8-29.09ZM520.39,351.56c0-45.99-37.28-83.27-83.27-83.27s-83.27,37.28-83.27,83.27,37.28,83.27,83.27,83.27,83.27-37.28,83.27-83.27ZM173.91,351.39l18.11,9.23-2.97-20.43,14.42-14.53-20.29-3.35-9.44-18.12-9.63,18.15-20.47,3.32,14.75,14.61-3.07,20.45,18.58-9.34ZM700.44,351.37l18.46,9.23-3.11-20.29,14.56-14.66-20.39-3.33-9.41-18.33-9.46,18.32-20.41,3.32,14.62,14.99-3.38,20.2,18.52-9.46ZM87.22,499.11c.74,6.99,4.46,11.64,8.73,14.62,5.56,3.87,10.76,3.29,17.02,2.62l17-1.82c11.8-1.26,24.74-.5,29.2-14.2,6.88,9.38,16.52,11.25,26.96,8.08,3.13-.95,8.32-.28,11.61-.92,13.1-2.55,20.87.41,28.22-9.06,4.24-5.47,4.02-11.64,3.29-18.42l-7.28-67.67-8.1.91-25.85,2.55-16.05,1.72-16,1.76-24.92,2.58-15.08,1.63-16.01,1.75-20,2.17c.3,6.05.86,11.1,1.49,17.03l5.76,54.66ZM660.93,488.66c6.09.31,11.84,1.33,18.08,1.28,7.18-.06,14.03.99,21.03,1.36l33.93,1.82,30.05,1.53c7.98.41,15.52,1.79,23.76,1.17l.9-18.61,1.77-29.22c.67-11.03,1.59-21.34,1.42-32.08l-28.66-2.01-.9,16.05-2.17,32.15c-14.8.83-27.42-2.08-39.14-2.01-7.93.05-15.27-1.18-23.1-1.52l-23.49-1.01-27.88-1.65-.94,18-.78,13.91,16.12.83ZM377.06,540.38l.06-99.83c-8.78-5.86-14.89-11.9-23.11-20.2l-.12,97.62,23.17,22.42ZM497.24,540.38l22.91-22.4-.06-97.6c-7.67,7.96-14.64,14.58-23.07,20.37l.21,99.63ZM484.81,553.4l-.07-105.46c-8.51,3.8-15.42,6.25-23.36,8.19l.09,120.35,23.34-23.08ZM412.92,576.37l.1-119.99-23.45-7.98-.03,105.18,23.38,22.78ZM448.89,589.26l-.04-130.72-23.34-.08v131.38s11.62,11.29,11.62,11.29l11.77-11.87ZM423,459h-1v129.5h1v-129.5ZM146.18,639.21l16.67,26.78,19.43-17.77,27.96-26.05,59.41-55.62-30.61-49.58-18.12,17.67-113.94,40.54,14.73,24.35c1.3,2.15,3.25,3.17,5.82,2.11,8-3.29,15.12-6.05,23.57-8.7l16.23,26.08c-5.59,7.01-15.54,12.92-21.14,20.2ZM774.26,549.27l-26.48-12.27-20.52,43.63-102.96-48.37-13.48,29.15,129.17,60.6,34.27-72.75ZM633.19,695.33l24.34-20.33,22.2,18.47,24.41-20.38c-3.18-2.99-5.58-4.94-8.83-7.55l-104.89-84.18-44.79,37.78,20.32,15.31,56.47,106.83,24.75-20.44-13.98-25.5ZM279.93,737.99c9.28-11.69,17.43-24.61,25.81-36.98,4.79-7.06,2.03-15.32-2.05-21.73l-23.28-36.58,11.06-15.69,17.77,12.36-9.34,14.22,30.26,12.31,9.95-14.13c5.74-8.16,7.45-21.4-1.97-27.92l-41.9-29.01c-7.99-5.53-19.32-3.18-24.81,4.72l-20.87,30.04c-3.85,5.54-5.31,13.42-1.45,19.53l25.61,40.51-13.28,19.31-18.1-12.07,9.24-14.5-30.14-12.22-11.2,16.65c-7.12,10.59-2.72,21.58,6.84,28.17l35.09,24.19c7.7,5.31,19.38,8.13,26.76-1.18ZM559.03,709.8c-1.64-5.75-7.3-8.75-13.11-11.31,5.22-7.01,6.9-13.05,4.91-20.16l-9.27-32.99c-2.4-10.55-13.11-16.45-23.81-13.53l-69.78,19.06,37.68,138.14,70.14-19.08c12.6-3.43,15.88-15.89,12.64-27.23l-9.39-32.89ZM390.74,729.04c3.4.63,6.64.95,10.16,1.04l11.13-26.75-31.81-6.1,5.12-27.15,34.61,6.42c4.44.82,8.84,1.82,13.08,1.3l4.95-27.76-13.94-2.65-9.95-1.83-9.99-1.8-15.42-2.76-29.78-5.38-25.24,139.27c1.8,2.83,6.46,2.95,9.25,3.44l10.95,1.95,13.9,2.47,9.15,1.73,8.97,1.67,14.95,2.52c4,.67,8.63,2.13,12.12.78l4.63-27.15-12.62-2.58-10.9-1.98-13.93-2.4-10.01-1.73,4.81-27.5,15.79,2.93Z"/>
    <path class="cls-9" d="M559.03,709.8l9.39,32.89c3.24,11.34-.04,23.8-12.64,27.23l-70.14,19.08-37.68-138.14,69.78-19.06c10.71-2.92,21.41,2.97,23.81,13.53l9.27,32.99c2,7.11.31,13.15-4.91,20.16,5.81,2.56,11.47,5.57,13.11,11.31ZM512.73,692.4c2.78-.75,5.99-1.52,7.7-3.33l-6.99-25.74-26.96,7.25,7.43,26.86,18.82-5.04ZM508.86,752.6l26.83-7.7-7.26-26.73-26.9,7.53,7.33,26.9Z"/>
    <path class="cls-9" d="M279.93,737.99c-7.39,9.31-19.06,6.49-26.76,1.18l-35.09-24.19c-9.57-6.59-13.96-17.59-6.84-28.17l11.2-16.65,30.14,12.22-9.24,14.5,18.1,12.07,13.28-19.31-25.61-40.51c-3.86-6.11-2.4-13.99,1.45-19.53l20.87-30.04c5.49-7.9,16.82-10.26,24.81-4.72l41.9,29.01c9.42,6.52,7.71,19.77,1.97,27.92l-9.95,14.13-30.26-12.31,9.34-14.22-17.77-12.36-11.06,15.69,23.28,36.58c4.08,6.41,6.83,14.67,2.05,21.73-8.38,12.37-16.53,25.29-25.81,36.98Z"/>
    <path class="cls-9" d="M390.74,729.04l-15.79-2.93-4.81,27.5,10.01,1.73,13.93,2.4,10.9,1.98,12.62,2.58-4.63,27.15c-3.49,1.35-8.12-.11-12.12-.78l-14.95-2.52-8.97-1.67-9.15-1.73-13.9-2.47-10.95-1.95c-2.79-.5-7.45-.61-9.25-3.44l25.24-139.27,29.78,5.38,15.42,2.76,9.99,1.8,9.95,1.83,13.94,2.65-4.95,27.76c-4.24.52-8.64-.48-13.08-1.3l-34.61-6.42-5.12,27.15,31.81,6.1-11.13,26.75c-3.52-.09-6.76-.41-10.16-1.04Z"/>
    <polygon class="cls-1" points="774.26 549.27 740 622.02 610.83 561.42 624.31 532.27 727.26 580.63 747.78 537 774.26 549.27"/>
    <path class="cls-9" d="M660.93,488.66l-16.12-.83.78-13.91.94-18,27.88,1.65,23.49,1.01c7.82.34,15.16,1.57,23.1,1.52,11.72-.07,24.34,2.83,39.14,2.01l2.17-32.15.9-16.05,28.66,2.01c.17,10.74-.76,21.06-1.42,32.08l-1.77,29.22-.9,18.61c-8.24.62-15.78-.77-23.76-1.17l-30.05-1.53-33.93-1.82c-7-.38-13.85-1.43-21.03-1.36-6.25.06-12-.96-18.08-1.28Z"/>
    <polygon class="cls-16" points="700.44 351.37 681.92 360.82 685.3 340.62 670.68 325.63 691.09 322.31 700.55 303.98 709.96 322.31 730.35 325.65 715.79 340.3 718.9 360.6 700.44 351.37"/>
    <polygon class="cls-16" points="173.91 351.39 155.34 360.72 158.4 340.28 143.65 325.67 164.12 322.35 173.75 304.2 183.19 322.32 203.48 325.67 189.06 340.19 192.02 360.62 173.91 351.39"/>
    <polygon class="cls-8" points="508.86 752.6 501.53 725.7 528.43 718.17 535.69 744.9 508.86 752.6"/>
    <path class="cls-8" d="M512.73,692.4l-18.82,5.04-7.43-26.86,26.96-7.25,6.99,25.74c-1.71,1.81-4.92,2.59-7.7,3.33Z"/>
    <rect class="cls-7" x="349.19" y="118.83" width="29.9" height="45.63" transform="translate(-23.42 92.07) rotate(-13.97)"/>
    <rect class="cls-7" x="234.37" y="175.89" width="28.55" height="48.43" transform="translate(-70.52 198.69) rotate(-38.57)"/>
    <g>
      <path class="cls-9" d="M399.53,227.24l-19.08-35.17c-2.88-.31-6.27.28-9.26.94l-8.84,1.95,9.35,38.89-19.54,5.22c-3.6.96-7.19,1.58-11.6,2.17l-34.09-138.63,73.85-18.12c9.4-2.31,18.03,4.77,21.03,13.18l15.47,62.6c1.87,7.59,1.13,15.06-5.62,21.07l20.26,37.99-31.94,7.9ZM373.14,115.89l-29.02,7.22,11.01,44.28,29.02-7.22-11.01-44.28Z"/>
      <path class="cls-4" d="M271.24,250.11l22.8,29.09-25.05,19.78-89.22-111.58,55.62-44.75c7.93-6.38,18.34-6.89,26.09-.12l43.68,54.44c6.7,8.35,7.03,20.13-1.98,27.39l-31.94,25.74ZM244.71,172.27l-22.32,17.8,30.19,37.86,22.32-17.8-30.19-37.86Z"/>
      <path class="cls-4" d="M643.17,256.47c-7.92,9.71-19.75,11.59-29.31,3.73l-30.65-25.21-23.48,28.39-24.7-20.29,89.36-108.73c1.26-1.53,4.57.68,5.71,1.61l51.94,42.8c8.42,6.94,9.41,18.52,2.62,26.85l-41.49,50.84ZM632.07,175.08l-30.78,37.14,21.86,18.12,30.78-37.14-21.86-18.12Z"/>
      <path class="cls-9" d="M513.52,178.04l-25.26-5.57-6.11,26.69,20.82,4.93,26.32,6.09-6.4,27.67c-3.62,0-6.51-.57-10.08-1.39l-68.5-15.69,31.55-138.47c3.96-.41,6.77.27,10.32,1.08l68.3,15.57-6.59,28.49-47.01-10.55-6.08,26.79,31.5,7.33-12.78,27.01Z"/>
      <rect class="cls-7" x="603.49" y="188.51" width="48.24" height="28.4" transform="translate(71.01 556.52) rotate(-50.34)"/>
    </g>
    <g>
      <path class="cls-12" d="M520.39,351.56c0,45.99-37.28,83.27-83.27,83.27s-83.27-37.28-83.27-83.27,37.28-83.27,83.27-83.27,83.27,37.28,83.27,83.27ZM403.84,297.1c-5.45,3.33-10.37,7.46-14.6,12.25-21.26,24.11-21.28,60.28-.03,84.41,4.46,5.06,9.69,9.39,15.5,12.82,19.92,11.74,44.64,11.79,64.61.13,5.73-3.35,10.91-7.57,15.34-12.51,21.8-24.31,21.74-61.16-.15-85.4-4.21-4.67-9.09-8.69-14.48-11.93-20.38-12.26-45.89-12.17-66.19.23Z"/>
      <polygon class="cls-12" points="448.89 589.26 437.12 601.13 425.52 589.84 425.5 458.46 448.84 458.54 448.89 589.26"/>
      <path class="cls-2" d="M484.81,553.4l-23.34,23.08-.09-120.35c7.93-1.94,14.84-4.4,23.36-8.19l.07,105.46Z"/>
      <polygon class="cls-6" points="412.92 576.37 389.54 553.58 389.57 448.4 413.02 456.38 412.92 576.37"/>
      <path class="cls-10" d="M377.06,540.38l-23.17-22.42.12-97.62c8.21,8.3,14.32,14.34,23.11,20.2l-.06,99.83Z"/>
      <path class="cls-12" d="M497.24,540.38l-.21-99.63c8.43-5.8,15.39-12.42,23.07-20.37l.06,97.6-22.91,22.4Z"/>
      <rect class="cls-14" x="422" y="459" width="1" height="129.5"/>
      <path class="cls-18" d="M470.03,296.87c-14.91,16.29-21.59,37.77-20.5,60.14.9,18.69,8.53,34.78,19.8,49.69-19.97,11.66-44.68,11.61-64.61-.13,25.51-30.78,27.37-74.32,2.73-106.13-.71-.92-2.46-2.21-3.6-3.35,20.3-12.4,45.81-12.49,66.19-.23Z"/>
      <path class="cls-17" d="M403.84,297.1c1.14,1.14,2.89,2.43,3.6,3.35,24.63,31.81,22.78,75.34-2.73,106.13-5.81-3.43-11.05-7.75-15.5-12.82,21.18-24.58,20.72-59.74.03-84.41,4.23-4.79,9.15-8.92,14.6-12.25Z"/>
      <path class="cls-11" d="M484.51,308.79c-.69,1.27-1.52,3.3-2.25,4.24-19.19,24.89-16.58,56.76,2.4,81.16-4.43,4.94-9.61,9.16-15.34,12.51-11.26-14.91-18.89-31-19.8-49.69-1.08-22.37,5.6-43.86,20.5-60.14,5.39,3.24,10.27,7.26,14.48,11.93Z"/>
      <path class="cls-5" d="M484.66,394.19c-18.97-24.4-21.58-56.26-2.4-81.16.73-.94,1.56-2.98,2.25-4.24,21.88,24.24,21.95,61.08.15,85.4Z"/>
      <path class="cls-5" d="M389.24,309.35c20.69,24.68,21.14,59.83-.03,84.41-21.25-24.13-21.23-60.3.03-84.41Z"/>
    </g>
    <g>
      <g>
        <path class="cls-9" d="M87.22,499.11l-5.76-54.66c-.62-5.92-1.19-10.98-1.49-17.03l20-2.17,16.01-1.75,15.08-1.63,24.92-2.58,16-1.76,16.05-1.72,25.85-2.55,8.1-.91,7.28,67.67c.73,6.78.95,12.95-3.29,18.42-7.35,9.47-15.12,6.51-28.22,9.06-3.29.64-8.48-.03-11.61.92-10.44,3.17-20.07,1.3-26.96-8.08-4.46,13.7-17.41,12.94-29.2,14.2l-17,1.82c-6.26.67-11.46,1.26-17.02-2.62-4.27-2.98-8-7.63-8.73-14.62ZM181.71,476.69l17.36-1.59c-.18-4.28-.39-7.42-.79-11.16l-1.71-15.87c-7.46-.48-13.43.65-20.64,1.45l-7.08.79.95,10.66c.53,5.98,1.09,10.89,1.96,17.02l9.96-1.28ZM142.24,480.9c-.24-4.98-.27-7.36-.67-10.77l-1.88-16.22c-13.61-.63-13.67,1.72-27.21,2.32-.14,1.24.07,4.81.31,6.93l2.35,20.69,7.97-1.09,19.13-1.84Z"/>
        <path class="cls-8" d="M181.71,476.69l-9.96,1.28c-.87-6.13-1.43-11.03-1.96-17.02l-.95-10.66,7.08-.79c7.21-.8,13.18-1.93,20.64-1.45l1.71,15.87c.4,3.74.62,6.88.79,11.16l-17.36,1.59Z"/>
        <path class="cls-7" d="M142.24,480.9l-19.13,1.84-7.97,1.09-2.35-20.69c-.24-2.12-.45-5.69-.31-6.93,13.54-.6,13.6-2.94,27.21-2.32l1.88,16.22c.4,3.42.43,5.8.67,10.77Z"/>
      </g>
      <g>
        <path class="cls-9" d="M146.18,639.21c5.61-7.28,15.56-13.19,21.14-20.2l-16.23-26.08c-8.45,2.65-15.57,5.41-23.57,8.7-2.57,1.06-4.52.04-5.82-2.11l-14.73-24.35,113.94-40.54,18.12-17.67,30.61,49.58-59.41,55.62-27.96,26.05-19.43,17.77-16.67-26.78ZM190.23,599.75l39.75-35.66c-4.15-.79-6.94.49-10.23,1.76l-41.06,15.97,11.53,17.93Z"/>
        <path class="cls-15" d="M190.23,599.75l-11.53-17.93,41.06-15.97c3.29-1.28,6.08-2.55,10.23-1.76l-39.75,35.66Z"/>
      </g>
    </g>
    <g>
      <path class="cls-9" d="M633.19,695.33l13.98,25.5-24.75,20.44-56.47-106.83-20.32-15.31,44.79-37.78,104.89,84.18c3.25,2.61,5.65,4.56,8.83,7.55l-24.41,20.38-22.2-18.47-24.34,20.33ZM634.74,655.68l-44.54-37.32,28.13,50.96,16.4-13.64Z"/>
      <polygon class="cls-15" points="634.74 655.68 618.33 669.32 590.2 618.36 634.74 655.68"/>
    </g>
  </g>
</svg>