<?xml version="1.0" encoding="UTF-8"?>
<svg id="Layer_1" data-name="Layer 1" xmlns="http://www.w3.org/2000/svg" viewBox="0 0 149 187">
  <defs>
    <style>
      .cls-1 {
        fill: #fff;
      }
    </style>
  </defs>
  <path class="cls-1" d="M149,109.65v77.35h-4.35l-.04-68.01c1.19-3.54,2.62-6.72,4.39-9.35Z"/>
  <g>
    <path class="cls-1" d="M94,0h55v25.39l-8.02,6.03-23.15.45c1.64,5.95,5.17,7.04,9.03,10.16-3.7,3.06-6.43,5.29-8.78,8.92l20.23.55c3.6,3.8,7.03,7.65,10.69,10.47v47.04l-39.39-.29,11.17,9.5-.03,48.6-39.76.08c-4.77,0-8.06-3.06-8.38-7.88l.12-38.2c.01-3.66,4.23-7.12,6.84-9.8-4.44-2.6-7.02-6.14-6.99-10.98l.26-45.19c2.45-2.83,7-3.51,11.82-3.58l.21-19.48c-5.25-.23-9.73-.65-15.02.38-8.3,1.62-18.39,8.8-18.49,18.03l-.57,50.86c-.04,4-3.87,7.32-6.81,9.93,2.47,2.12,6.74,5.57,6.76,9.04l.4,49.92c.08,10.4,12.57,15.16,19.86,17.04H0V1c3.46,2.67,6.64,6.38,9.62,10.2l-.06,61.61c-1.2,2.27-4.51,5.5-6.52,7.38,1.96,2.25,4.72,5.49,6.57,7.92l-.04,58.59-7.02,9.42,37.15-.06-7.91-9.21-.04-58.56,13.36-.3-.05-19.59-13.31-.27.04-48.02,51.09.17c4.92.02,6.85,6.05,7.95,9.83l-.09,26.88c-.02,6.28-5.45,10.29-12.09,11.24l-.26,19.66c6.49.31,12.7.47,19.01-.42,8.86-1.25,14.88-8.65,15.04-17.4l.37-18.99c.05-2.8,4.68-6.68,6.63-9.16-2.16-2.22-6.7-5.43-6.73-8.16l-.17-12.75c-.16-11.53-8.13-18.63-18.52-21.01Z"/>
    <path d="M94,0c10.39,2.37,18.37,9.47,18.52,21.01l.17,12.75c.04,2.73,4.57,5.94,6.73,8.16-1.95,2.49-6.58,6.37-6.63,9.16l-.37,18.99c-.17,8.75-6.19,16.15-15.04,17.4-6.31.89-12.52.73-19.01.42l.26-19.66c6.64-.95,12.06-4.96,12.09-11.24l.09-26.88c-1.09-3.78-3.02-9.81-7.95-9.83l-51.09-.17-.04,48.02,13.31.27.05,19.59-13.36.3.04,58.56,7.91,9.21-37.15.06,7.02-9.42.04-58.59c-1.85-2.43-4.61-5.67-6.57-7.92,2.02-1.88,5.32-5.1,6.52-7.38l.06-61.61C6.64,7.38,3.46,3.67,0,1V0h94Z"/>
    <path d="M149,109.02v.63c-1.77,2.63-3.2,5.81-4.39,9.35l.04,68.01h-73.65c-7.28-1.88-19.77-6.64-19.86-17.04l-.4-49.92c-.03-3.47-4.29-6.92-6.76-9.04,2.94-2.61,6.76-5.93,6.81-9.93l.57-50.86c.1-9.23,10.19-16.41,18.49-18.03,5.3-1.03,9.78-.61,15.02-.38l-.21,19.48c-4.82.07-9.38.75-11.82,3.58l-.26,45.19c-.03,4.84,2.55,8.37,6.99,10.98-2.6,2.68-6.83,6.14-6.84,9.8l-.12,38.2c.32,4.83,3.61,7.89,8.38,7.88l39.76-.08.03-48.6-11.17-9.5,39.39.29Z"/>
    <path d="M149,61.98c-3.65-2.81-7.09-6.66-10.69-10.47l-20.23-.55c2.35-3.63,5.09-5.86,8.78-8.92-3.86-3.12-7.39-4.21-9.03-10.16l23.15-.45,8.02-6.03v36.58Z"/>
  </g>
</svg>