<svg xmlns="http://www.w3.org/2000/svg" version="1.1" id="Layer_1" x="0" y="0" width="100%" viewBox="0 0 1870 2113" xml:space="preserve">
    <path fill="#FFF" d="M1 1358V1c311.366 0 622.732 0 934.499.466.393 2.8.38 5.133.38 7.467 0 431.453.018 862.906-.039 1294.36-.004 31.78-.046 63.576-1.052 95.334-.499 15.764-2.157 31.666-5.17 47.139-6.272 32.202-18.205 62.523-35.033 90.681-16.297 27.27-36.601 51.303-60.705 72.16-18.433 15.95-38.354 29.699-60.243 40.187-15.358 7.36-31.398 13.528-47.578 18.884-23.074 7.64-47.084 11.08-71.344 12.154-20.226.895-40.346-.473-60.371-3.748-19.525-3.193-38.48-8.326-56.89-15.455-9.157-3.546-18.108-7.625-27.326-11.603-.389-.349-.563-.588-.923-1.2a6.687 6.687 0 0 0-2.146-.914c.01.052.108.012.391-.286-.07-.854-.395-1.43-.78-1.965-21.45-29.842-37.319-62.318-46.724-97.937-10.124-38.341-12.358-77.07-6.993-116.35 5.009-36.67 16.816-71.044 34.88-103.185 16.119-28.678 36.744-53.811 61.424-75.721 23.6-20.952 49.845-37.649 78.703-50.08 26.093-11.238 53.358-18.462 81.716-21.598 34.195-3.782 68.006-2.124 101.492 5.753 7.202 1.695 14.325 3.729 21.634 5.645V836.693c-2.24-.399-4.325-.957-6.441-1.118-20.958-1.597-41.906-3.397-62.888-4.565-10.739-.598-21.542-.03-32.398-.063-.082-.073-.242-.223-.135-.663.132-23.437.16-46.433.18-69.43.009-8.72.035-9.043-8.462-9.926-17.717-1.842-35.446-4.11-53.22-4.712-19.416-.658-38.917-.18-58.328.817a725.142 725.142 0 0 0-56.188 5.068c-17.9 2.325-35.787 5.273-53.392 9.229-44.334 9.96-87.232 24.452-128.445 43.641-28.697 13.363-56.69 28.204-82.675 46.316-20.923 14.585-41.518 29.79-61.088 46.123-17.753 14.818-34.128 31.32-50.74 47.461-18.771 18.24-34.985 38.715-50.737 59.572-19.073 25.256-36.168 51.8-50.83 79.803-9.7 18.524-18.578 37.52-26.941 56.69a523.978 523.978 0 0 0-29.927 90.037c-4.867 20.77-8.977 41.778-12.125 62.873-2.94 19.707-4.155 39.67-6.16 59.518-.158 1.558-.569 3.091-.862 4.636zM1871 918v1196c-364.366 0-728.732 0-1093.356-.382 17.86-2.11 36.038-3.377 54.089-5.65 63.846-8.037 124.877-26.205 183.099-53.35 22.041-10.276 43.451-22.133 64.327-34.642 60.08-36.001 112.284-81.39 157.362-134.972 25.312-30.087 47.682-62.21 67.03-96.469 16.006-28.34 29.988-57.585 41.538-88.02 12-31.623 21.337-63.985 28.342-97.077 8.476-40.035 13.377-80.523 13.427-121.369.29-237.328.142-474.657.142-711.986v-6.208c31.82 22.64 64.142 42.637 97.898 60.251 43.247 22.566 88.119 41.27 134.67 55.917 44.184 13.902 89.131 24.578 135.099 30.295 27.083 3.369 54.34 5.456 81.564 7.504 11.528.867 23.176.153 34.769.158z"/>
    <path fill="#FF0050" d="M1871 917.531c-11.593.464-23.24 1.178-34.769.311-27.225-2.048-54.481-4.135-81.564-7.504-45.968-5.717-90.915-16.393-135.1-30.295-46.55-14.647-91.422-33.351-134.669-55.917-33.756-17.614-66.078-37.611-97.898-60.25v6.207c0 237.33.148 474.658-.142 711.986-.05 40.846-4.951 81.334-13.427 121.369-7.005 33.092-16.342 65.454-28.342 97.077-11.55 30.435-25.532 59.68-41.538 88.02-19.348 34.26-41.718 66.382-67.03 96.469-45.078 53.582-97.282 98.97-157.362 134.972-20.876 12.509-42.286 24.366-64.327 34.642-58.222 27.145-119.253 45.313-183.1 53.35-18.05 2.273-36.227 3.54-54.54 5.65-21.546.382-42.9.382-64.913.002-28.139-3.516-55.83-5.412-83.053-10.062-47.113-8.046-92.638-22.018-136.633-40.915-31.997-13.742-62.69-29.852-92.066-48.528-29.54-18.78-57.383-39.807-83.442-63.157-8.973-8.04-17.39-16.7-25.762-25.365 12.37 6.858 24.373 14.129 36.531 21.127 31.444 18.1 64.386 32.945 98.496 45.285 31.598 11.432 64.052 19.66 97.112 26.682.958.21 1.691.273 2.844.326a817.89 817.89 0 0 1 21.156 3.674c.958.21 1.691.273 2.872.326 1.6.169 2.751.348 4.128.674.958.21 1.691.273 2.875.326 1.61.174 2.77.357 4.186.69 1.292.207 2.328.263 3.822.31 1.946.173 3.433.357 5.178.691 1.292.207 2.328.263 3.823.309 1.952.176 3.443.362 5.214.7 1.628.206 2.977.258 4.795.3 2.62.176 4.773.362 7.205.7 1.628.206 2.977.258 4.798.3 2.961.178 5.451.366 8.253.71 2.633.205 4.954.252 7.749.29 14.725.079 28.98.39 43.228.21 32.33-.407 64.378-3.666 96.28-9.067 28.076-4.754 55.643-11.41 82.82-19.766 38.763-11.92 75.898-27.792 111.669-46.839 10.505-5.593 20.757-11.683 30.953-17.831 26.981-16.27 52.4-34.73 76.647-54.85 25.607-21.248 49.395-44.38 71.374-69.313a631.262 631.262 0 0 0 66.92-91.187c19.297-31.944 35.914-65.192 49.442-99.968 16.607-42.694 28.479-86.65 35.517-131.954 4.538-29.21 7.72-58.524 7.733-88.073.102-238.133.057-476.266.057-714.399V679.4c2.083 1.27 3.455 2.078 4.797 2.931 21.779 13.848 43.295 28.131 65.392 41.45 30.612 18.45 62.878 33.755 95.887 47.384a825.11 825.11 0 0 0 129.84 41.444 839.11 839.11 0 0 0 112.307 17.963c14.006 1.278 28.062 2.02 42.42 3.16 3.628.2 6.934.246 10.715.226 7.908-.065 15.34-.065 22.754-.065.055-1.176.125-1.981.125-2.786-.023-73.437-.08-146.874-.058-220.311.005-16.526.282-33.05.79-49.677 23.078 2.954 45.768 6.268 68.532 8.95 10.76 1.267 21.661 1.325 32.499 1.931v345.531z"/>
    <path fill="#00F2EA" d="M510.301 1649.167c9.045 3.837 17.996 7.916 27.154 11.462 18.41 7.129 37.364 12.262 56.889 15.455 20.025 3.275 40.145 4.643 60.37 3.748 24.261-1.073 48.271-4.514 71.345-12.154 16.18-5.356 32.22-11.524 47.578-18.884 21.889-10.488 41.81-24.237 60.243-40.187 24.104-20.857 44.408-44.89 60.705-72.16 16.828-28.158 28.76-58.48 35.032-90.681 3.014-15.473 4.672-31.375 5.171-47.139 1.006-31.758 1.048-63.554 1.052-95.334.057-431.454.038-862.907.04-1294.36 0-2.334.012-4.667.07-7.467 116.07-.466 232.092-.466 348.632 0 .818 16.34.596 32.246 1.587 48.076.754 12.042 3.05 23.988 4.225 36.125-65.447.177-130.46.205-195.472.229-18.867.007-37.734.001-57.099.001v7.21c0 457.772-.005 915.544.014 1373.317.001 23.127-1.9 46.093-7.04 68.626-11.823 51.824-35.754 97.4-71.983 136.382-27.07 29.128-58.903 51.701-95.106 68.069-29.436 13.308-60.383 21.196-92.476 24.292-20.188 1.948-40.41 1.58-60.629-.702-20.224-2.283-39.889-6.728-59.21-13.02-34.799-11.33-66.192-28.836-94.366-52.078-17.475-14.416-33.497-30.306-46.726-48.826z"/>
    <path fill="#FFF" d="M1290.83 85.518c-1.61-11.988-3.907-23.934-4.66-35.976-.992-15.83-.77-31.736-1.12-48.076C1480.26 1 1675.52 1 1871 1v570.531c-10.838-.137-21.74-.195-32.5-1.462-22.763-2.682-45.453-5.996-68.69-9.031-.517.02-.812-.178-.587-.528.409-1.303.752-2.255.753-3.208.03-22.496.028-44.992 0-67.488 0-.93-.307-1.86-.436-2.588-5.894-.424-11.472-1.17-17.051-1.166-24.011.013-47.728-3.08-71.247-7.343-28.783-5.216-56.883-13.14-84.235-23.652-23.393-8.99-46.167-19.233-67.767-32.011-4.323-2.558-8.918-4.656-13.345-6.981.043-.016.048.074-.02-.31-.814-.565-1.558-.744-2.471-1.16-1.539-1.237-2.908-2.238-4.175-3.622-.442-1.197-.92-2.066-1.536-2.82-9.01-11.025-18.46-21.72-26.983-33.108-22.795-30.46-41.634-63.242-56.622-98.255-12.14-28.36-21.38-57.598-28.125-87.68-6.977-31.12-10.272-62.555-8.979-94.446.12-2.95.016-5.907.016-8.897-1.402-.105-2.225-.22-3.048-.22-29.83-.01-59.661-.016-89.492.01-1.136 0-2.272.304-3.476.343-.068-.123-.155-.39-.155-.39z"/>
    <path fill="#00F2EA" d="M1 1358.469c.293-2.014.704-3.547.861-5.105 2.006-19.848 3.22-39.811 6.161-59.518 3.148-21.095 7.258-42.103 12.125-62.873a523.978 523.978 0 0 1 29.927-90.037c8.363-19.17 17.241-38.166 26.94-56.69 14.663-28.003 31.758-54.547 50.831-79.803 15.752-20.857 31.966-41.333 50.737-59.572 16.612-16.14 32.987-32.643 50.74-47.46 19.57-16.334 40.165-31.539 61.088-46.124 25.984-18.112 53.978-32.953 82.675-46.316 41.213-19.19 84.11-33.68 128.445-43.641 17.605-3.956 35.492-6.904 53.392-9.229a725.142 725.142 0 0 1 56.188-5.068c19.411-.997 38.912-1.475 58.327-.817 17.775.603 35.504 2.87 53.22 4.712 8.498.883 8.472 1.205 8.464 9.927-.022 22.996-.05 45.992-.623 69.552-6.856.846-13.162 1.164-19.472 1.405-26.706 1.018-53.13 4.356-79.447 8.967-34.512 6.048-68.223 14.979-101.248 26.622-68.587 24.18-131.115 59.325-187.796 104.737-40.621 32.546-76.705 69.662-108.27 111.11-30.983 40.688-56.947 84.345-77.46 131.203-23.034 52.615-39.355 107.21-46.826 164.217-3.12 23.8-5.613 47.76-6.755 71.724-1.542 32.383.068 64.797 3.892 97.01 3.407 28.705 8.689 57.1 15.913 85.118 10.39 40.3 24.508 79.254 42.547 116.736 26.872 55.837 60.955 106.88 102.685 152.762 4.741 5.213 9.284 10.606 13.552 15.975-.84-.084-1.386-.12-1.77-.39-27.058-18.95-52.947-39.383-76.917-62.12-11.45-10.861-22.534-22.174-33.049-33.939-13.64-15.26-27.136-30.72-39.637-46.91-21.644-28.034-40.88-57.809-56.65-89.499-12.662-25.44-24.477-51.455-34.453-78.045-16.018-42.694-27.128-86.84-32.395-132.26-2.09-18.019-3.391-36.129-5.092-54.193-.085-.898-.558-1.759-.85-2.637v-59.531z"/>
    <path fill="#FFF" d="M1 1418.469c.292.41.765 1.27.85 2.168 1.7 18.064 3.002 36.174 5.092 54.193 5.267 45.42 16.377 89.566 32.395 132.26 9.976 26.59 21.791 52.604 34.452 78.045 15.772 31.69 35.007 61.465 56.651 89.498 12.5 16.191 25.998 31.65 39.637 46.911 10.515 11.765 21.599 23.078 33.049 33.939 23.97 22.737 49.86 43.17 76.917 62.12.384.27.93.306 1.732.41.33-.04.271-.102.267.206.346.45.697.593 1.01.745-.038.01-.016-.065-.001.254.603.514 1.19.709 1.954 1.142 1.304 1.304 2.43 2.37 3.743 3.73.9.825 1.614 1.355 2.29 1.875-.037-.01-.014-.084-.014-.084 8.671 8.377 17.088 17.037 26.061 25.077 26.06 23.35 53.903 44.377 83.442 63.157 29.377 18.676 60.07 34.786 92.066 48.528 43.995 18.897 89.52 32.87 136.633 40.915 27.222 4.65 54.914 6.546 82.585 10.062-236.737.38-473.664.38-710.811.38v-695.531z"/>
    <path d="M288.562 1923.795c-1.127-1.066-2.253-2.131-3.627-3.777-.797-.76-1.348-.94-1.9-1.119 0 0-.02.074.12-.295-.276-.477-.693-.585-1.109-.693 0 0 .06.062.097.042-4.598-5.33-9.141-10.722-13.882-15.935-41.73-45.882-75.813-96.925-102.685-152.762-18.039-37.482-32.156-76.436-42.547-116.736-7.224-28.019-12.506-56.413-15.913-85.117-3.824-32.214-5.434-64.628-3.892-97.011 1.142-23.965 3.636-47.923 6.755-71.724 7.471-57.007 23.792-111.602 46.826-164.217 20.513-46.858 46.477-90.515 77.46-131.203 31.565-41.448 67.649-78.564 108.27-111.11 56.681-45.412 119.209-80.557 187.796-104.737 33.025-11.643 66.736-20.574 101.248-26.622 26.317-4.611 52.741-7.949 79.447-8.967 6.31-.24 12.616-.56 19.365-.965.442-.123.602.027.618.563.015 91.971.015 183.406.015 275.302-1.966-.54-3.373-.9-4.764-1.313-35.64-10.594-72.052-14.442-109.039-11.279-44.973 3.846-87.142 17.105-125.799 40.555-54.24 32.904-94.239 78.4-119.413 136.792-19.559 45.367-26.554 92.7-22.369 141.776 3.658 42.896 16.394 83.036 37.968 120.225 25.69 44.285 60.722 79.528 104.691 105.8 4.776 2.853 9.904 5.118 14.868 7.656 0 0-.097.04-.02.363.812.509 1.549.695 2.286.882.132.27.306.508.695.857 13.402 18.661 29.424 34.551 46.899 48.967 28.174 23.242 59.567 40.747 94.367 52.078 19.32 6.292 38.985 10.737 59.209 13.02 20.219 2.282 40.44 2.65 60.629.702 32.093-3.096 63.04-10.984 92.476-24.292 36.203-16.368 68.036-38.941 95.106-68.069 36.229-38.981 60.16-84.558 71.983-136.382 5.14-22.533 7.041-45.5 7.04-68.626-.019-457.773-.014-915.545-.014-1373.317v-7.21c19.365 0 38.232.006 57.1-.001 65.012-.024 130.024-.052 195.471-.229.435-.15.522.118.5.649 1.74 9.46 3.167 18.473 5.321 27.308 11.425 46.865 28.869 91.386 53.455 132.921 23.154 39.115 50.96 74.6 84.09 105.899 23.307 22.019 48.251 41.83 75.368 58.92 1.368 1 2.737 2.002 4.506 3.575 1.035.784 1.672.996 2.309 1.208 0 0-.005-.09-.28.242 3.79 4.711 7.684 9.265 11.948 13.441 26.829 26.285 55.99 49.577 88.009 69.334 47.615 29.382 98.743 49.855 153.378 61.696 0 0 .295.198.455.279.008 16.606-.27 33.131-.274 49.657-.022 73.437.035 146.874.058 220.311 0 .805-.07 1.61-.125 2.786-7.414 0-14.846 0-23.076-.153-4.104-.156-7.41-.159-10.718-.162-14.033-.986-28.089-1.728-42.095-3.006a839.11 839.11 0 0 1-112.306-17.963 825.11 825.11 0 0 1-129.841-41.444c-33.009-13.63-65.275-28.934-95.887-47.384-22.097-13.319-43.613-27.602-65.392-41.45-1.342-.853-2.714-1.66-4.797-2.93v6.575c0 238.133.045 476.266-.057 714.4-.013 29.548-3.195 58.862-7.733 88.072-7.038 45.304-18.91 89.26-35.517 131.954-13.528 34.776-30.145 68.024-49.442 99.968a631.262 631.262 0 0 1-66.92 91.187c-21.98 24.934-45.767 48.065-71.374 69.313-24.246 20.12-49.666 38.58-76.647 54.85-10.196 6.148-20.448 12.238-30.953 17.831-35.771 19.047-72.906 34.92-111.67 46.84-27.176 8.356-54.743 15.011-82.82 19.765-31.9 5.401-63.949 8.66-96.28 9.068-14.247.18-28.502-.132-43.533-.428-3.104-.214-5.43-.222-7.755-.23-2.49-.187-4.98-.375-8.207-.765-2.095-.214-3.453-.228-4.811-.24-2.153-.186-4.305-.372-7.192-.76-2.092-.214-3.45-.228-4.808-.24-1.492-.186-2.983-.372-5.174-.756a31.99 31.99 0 0 0-3.842-.252 93.886 93.886 0 0 1-5.16-.748c-1.745-.216-2.792-.234-3.84-.252a79.894 79.894 0 0 1-4.13-.74 21.316 21.316 0 0 0-2.898-.274 76.61 76.61 0 0 1-4.106-.727c-1.398-.218-2.146-.245-2.894-.273-6.837-1.178-13.674-2.356-21.133-3.726a20.473 20.473 0 0 0-2.867-.274c-32.835-6.873-65.29-15.102-96.887-26.534-34.11-12.34-67.052-27.186-98.496-45.285-12.158-6.998-24.16-14.27-36.531-21.127-.299.288-.322.362-.103-.019-.74-.847-1.699-1.313-2.658-1.78z"/>
    <path fill="#FF0050" d="M507.45 1646.626c-5.247-2.24-10.375-4.505-15.15-7.358-43.97-26.272-79.002-61.515-104.692-105.8-21.574-37.19-34.31-77.33-37.968-120.225-4.185-49.076 2.81-96.41 22.369-141.776 25.174-58.391 65.172-103.888 119.413-136.792 38.657-23.45 80.826-36.71 125.799-40.555 36.987-3.163 73.399.685 109.039 11.28 1.39.413 2.798.772 4.764 1.312 0-91.896 0-183.331.067-275.229 10.84-.504 21.643-1.071 32.382-.473 20.982 1.168 41.93 2.968 62.888 4.565 2.116.161 4.201.72 6.44 1.118v354.495c-7.308-1.916-14.43-3.95-21.633-5.645-33.486-7.877-67.297-9.535-101.492-5.753-28.358 3.136-55.623 10.36-81.716 21.599-28.858 12.43-55.103 29.127-78.703 50.079-24.68 21.91-45.305 47.043-61.424 75.721-18.064 32.141-29.871 66.515-34.88 103.184-5.365 39.28-3.131 78.01 6.993 116.351 9.405 35.619 25.274 68.095 46.725 97.937.384.535.71 1.11.78 1.965zM509.205 1647.826c-.509.156-1.246-.03-2.07-.591.557-.167 1.2.041 2.07.591z"/>
    <path fill="#FE0050" d="M1735.642 833.733a89.08 89.08 0 0 1 9.919.072c-2.984.173-6.29.127-9.919-.072zM604.61 2028.724c2.014-.15 4.34-.142 6.97.082-2.015.17-4.336.122-6.97-.082zM591.56 2027.714c1.079-.14 2.437-.127 4.06.097-1.083.16-2.432.108-4.06-.097zM579.56 2026.714c1.079-.14 2.437-.127 4.06.097-1.083.16-2.432.108-4.06-.097zM570.523 2025.704c.79-.133 1.837-.115 3.124.11-.796.153-1.832.097-3.124-.11zM561.523 2024.704c.79-.133 1.837-.115 3.124.11-.796.152-1.832.096-3.124-.11zM554.462 2023.687c.523-.12 1.271-.093 2.222.135-.531.138-1.264.075-2.222-.135zM547.462 2022.687c.523-.12 1.271-.093 2.222.135-.531.138-1.264.075-2.222-.135zM523.462 2018.687c.523-.12 1.271-.093 2.222.135-.531.138-1.264.075-2.222-.135z"/>
    <path fill="#FF0050" d="M1509.229 410.981c-27.218-16.708-52.162-36.518-75.47-58.537-33.13-31.299-60.935-66.784-84.089-105.899-24.586-41.535-42.03-86.056-53.455-132.921-2.154-8.835-3.581-17.848-5.254-27.185 1.227-.57 2.363-.874 3.5-.875 29.83-.025 59.66-.02 89.49-.01.824.001 1.647.116 3.049.221 0 2.99.104 5.948-.016 8.897-1.293 31.891 2.002 63.326 8.98 94.445 6.744 30.083 15.984 59.321 28.124 87.681 14.988 35.013 33.827 67.795 56.622 98.255 8.523 11.388 17.973 22.083 26.983 33.108.617.754 1.094 1.623 1.536 2.82z"/>
    <path fill="#00F2EA" d="M1769.223 560.51c-54.86-11.49-105.988-31.964-153.603-61.346-32.019-19.757-61.18-43.049-88.01-69.334-4.263-4.176-8.157-8.73-11.99-13.426 4.702 1.994 9.297 4.092 13.62 6.65 21.6 12.778 44.374 23.021 67.767 32.011 27.352 10.511 55.452 18.436 84.235 23.652 23.519 4.263 47.236 7.356 71.247 7.343 5.579-.003 11.157.742 17.051 1.166.129.727.436 1.657.437 2.588.027 22.496.029 44.992 0 67.488-.002.953-.345 1.905-.754 3.208zM1515.874 415.763c-.568.172-1.205-.04-2.071-.588.514-.156 1.258.023 2.071.588z"/>
    <path fill="#FF0050" d="M288.748 1924.09c.773.17 1.733.637 2.51 1.493-.896-.138-1.61-.668-2.51-1.493z"/>
    <path fill="#00F2EA" d="M283.051 1919.218c.536-.14 1.087.04 1.708.562-.518.147-1.105-.048-1.708-.562zM282.042 1918.219c.42-.2.837-.092 1.15.375-.453.218-.804.075-1.15-.375z"/>
</svg>
